<svg
    version="1.1"
    xmlns="http://www.w3.org/2000/svg"
    viewBox="0 0 1024.899823501943 964.5412369312594"
    width="1024.899823501943"
    height="964.5412369312594"
>
    <!-- svg-source:excalidraw -->
    <metadata></metadata>
    <defs>
        <style>
            .state-box {
                fill: none;
            }
            .state-box.failure {
                fill: red;
            }
            .state-box.success {
                fill: green;
            }

            text.arrow {
                fill: black;
                font-size: 20px;
            }
            text.arrow.failure {
                fill: red;
            }
            text.arrow.success {
                fill: green;
            }

            path.arrow {
                stroke: black;
            }
            path.arrow.failure {
                stroke: red;
            }
            path.arrow.success {
                stroke: green;
            }
            * {
                font-family: Arial;
            }
        </style>
    </defs>
    <g
        stroke-linecap="round"
        transform="translate(97.083314288564 360.35594956090137) rotate(0 134.48668589264958 57.5)"
    >
        <path
            d="M28.75 0 C98.32 0, 167.89 0, 240.22 0 C259.39 0, 268.97 9.58, 268.97 28.75 C268.97 51.54, 268.97 74.33, 268.97 86.25 C268.97 105.42, 259.39 115, 240.22 115 C186.88 115, 133.54 115, 28.75 115 C9.58 115, 0 105.42, 0 86.25 C0 68, 0 49.74, 0 28.75 C0 9.58, 9.58 0, 28.75 0"
            stroke="none"
            stroke-width="0"
            class="state-box redirecting-to-facebook-0"
        ></path>
        <path
            d="M28.75 0 C76.49 0, 124.22 0, 240.22 0 M28.75 0 C112.7 0, 196.65 0, 240.22 0 M240.22 0 C259.39 0, 268.97 9.58, 268.97 28.75 M240.22 0 C259.39 0, 268.97 9.58, 268.97 28.75 M268.97 28.75 C268.97 43.14, 268.97 57.52, 268.97 86.25 M268.97 28.75 C268.97 49.47, 268.97 70.19, 268.97 86.25 M268.97 86.25 C268.97 105.42, 259.39 115, 240.22 115 M268.97 86.25 C268.97 105.42, 259.39 115, 240.22 115 M240.22 115 C181.82 115, 123.42 115, 28.75 115 M240.22 115 C178.36 115, 116.5 115, 28.75 115 M28.75 115 C9.58 115, 0 105.42, 0 86.25 M28.75 115 C9.58 115, 0 105.42, 0 86.25 M0 86.25 C0 66.91, 0 47.57, 0 28.75 M0 86.25 C0 64.29, 0 42.33, 0 28.75 M0 28.75 C0 9.58, 9.58 0, 28.75 0 M0 28.75 C0 9.58, 9.58 0, 28.75 0"
            stroke="#1e1e1e"
            stroke-width="1"
            fill="none"
        ></path>
    </g>
    <g
        transform="translate(133.76605273248333 382.85594956090137) rotate(0 97.80394744873047 35)"
    >
        <text
            x="97.80394744873047"
            y="24.668"
            font-family="Excalifont, Xiaolai, sans-serif, Segoe UI Emoji"
            font-size="28px"
            fill="#1e1e1e"
            text-anchor="middle"
            direction="ltr"
            dominant-baseline="alphabetic"
        >
            Redirecting to
        </text>
        <text
            x="97.80394744873047"
            y="59.668"
            font-family="Excalifont, Xiaolai, sans-serif, Segoe UI Emoji"
            font-size="28px"
            fill="#1e1e1e"
            text-anchor="middle"
            direction="ltr"
            dominant-baseline="alphabetic"
        >
            facebook
        </text>
    </g>
    <g
        stroke-linecap="round"
        transform="translate(91.97807752468816 597.279894524856) rotate(0 136.2721831999704 57.5)"
    >
        <path
            d="M28.75 0 C110.72 0, 192.68 0, 243.79 0 C262.96 0, 272.54 9.58, 272.54 28.75 C272.54 47.48, 272.54 66.22, 272.54 86.25 C272.54 105.42, 262.96 115, 243.79 115 C171.18 115, 98.57 115, 28.75 115 C9.58 115, 0 105.42, 0 86.25 C0 68.92, 0 51.6, 0 28.75 C0 9.58, 9.58 0, 28.75 0"
            stroke="none"
            stroke-width="0"
            class="state-box signed-in-0"
        ></path>
        <path
            d="M28.75 0 C110.8 0, 192.84 0, 243.79 0 M28.75 0 C86.56 0, 144.38 0, 243.79 0 M243.79 0 C262.96 0, 272.54 9.58, 272.54 28.75 M243.79 0 C262.96 0, 272.54 9.58, 272.54 28.75 M272.54 28.75 C272.54 42.46, 272.54 56.17, 272.54 86.25 M272.54 28.75 C272.54 46.21, 272.54 63.68, 272.54 86.25 M272.54 86.25 C272.54 105.42, 262.96 115, 243.79 115 M272.54 86.25 C272.54 105.42, 262.96 115, 243.79 115 M243.79 115 C174.09 115, 104.39 115, 28.75 115 M243.79 115 C166.88 115, 89.97 115, 28.75 115 M28.75 115 C9.58 115, 0 105.42, 0 86.25 M28.75 115 C9.58 115, 0 105.42, 0 86.25 M0 86.25 C0 74.09, 0 61.94, 0 28.75 M0 86.25 C0 71.33, 0 56.41, 0 28.75 M0 28.75 C0 9.58, 9.58 0, 28.75 0 M0 28.75 C0 9.58, 9.58 0, 28.75 0"
            stroke="#1e1e1e"
            stroke-width="1"
            fill="none"
        ></path>
    </g>
    <g
        transform="translate(168.47029246294005 637.279894524856) rotate(0 59.77996826171875 17.5)"
    >
        <text
            x="59.77996826171875"
            y="24.668"
            font-family="Excalifont, Xiaolai, sans-serif, Segoe UI Emoji"
            font-size="28px"
            fill="#1e1e1e"
            text-anchor="middle"
            direction="ltr"
            dominant-baseline="alphabetic"
        >
            Signed-in
        </text>
    </g>
    <g mask="url(#mask-dBRB1qP6bkcvI_AYK9K7M)" stroke-linecap="round">
        <g
            transform="translate(231.84258940532527 472.8404512552954) rotate(0 -0.18793714904882108 63.163281006117586)"
        >
            <path
                d="M0 0 C-0.06 21.05, -0.31 105.27, -0.38 126.33 M0 0 C-0.06 21.05, -0.31 105.27, -0.38 126.33"
                stroke="#1e1e1e"
                stroke-width="1"
                fill="none"
            ></path>
        </g>
        <g
            transform="translate(231.84258940532527 472.8404512552954) rotate(0 -0.18793714904882108 63.163281006117586)"
        >
            <path
                d="M-8.86 102.81 C-6.86 108.35, -4.86 113.88, -0.38 126.33 M-8.86 102.81 C-6.74 108.67, -4.63 114.53, -0.38 126.33"
                stroke="#1e1e1e"
                stroke-width="1"
                fill="none"
            ></path>
        </g>
        <g
            transform="translate(231.84258940532527 472.8404512552954) rotate(0 -0.18793714904882108 63.163281006117586)"
        >
            <path
                d="M8.24 102.86 C6.21 108.38, 4.19 113.91, -0.38 126.33 M8.24 102.86 C6.1 108.71, 3.95 114.55, -0.38 126.33"
                stroke="#1e1e1e"
                stroke-width="1"
                fill="none"
            ></path>
        </g>
    </g>
    <mask id="mask-dBRB1qP6bkcvI_AYK9K7M">
        <rect
            x="0"
            y="0"
            fill="#fff"
            width="332.2184637034229"
            height="699.1670132675306"
        ></rect>
        <rect
            x="174.17469467571027"
            y="523.503732261413"
            fill="#000"
            width="114.95991516113281"
            height="25"
            opacity="1"
        ></rect>
    </mask>
    <g
        transform="translate(174.17469467571027 523.503732261413) rotate(0 57.47995758056618 12.5)"
    >
        <text
            x="57.479957580566406"
            y="17.619999999999997"
            fill="#1e1e1e"
            text-anchor="middle"
            direction="ltr"
            dominant-baseline="alphabetic"
            class="arrow ok-response-0"
        >
            ok response
        </text>
    </g>
    <g mask="url(#mask-M0EonnSy34e1POpJgDUsM)" stroke-linecap="round">
        <g
            transform="translate(357.8423480437291 366.59106680812226) rotate(0 118.25698554866358 -19.53323558299583)"
        >
            <path
                d="M0 0 C18.48 -6.44, 71.46 -35.31, 110.88 -38.67 C150.3 -42.03, 215.57 -23.24, 236.51 -20.16 M0 0 C18.48 -6.44, 71.46 -35.31, 110.88 -38.67 C150.3 -42.03, 215.57 -23.24, 236.51 -20.16"
                stroke="#1e1e1e"
                stroke-width="1"
                fill="none"
            ></path>
        </g>
        <g
            transform="translate(357.8423480437291 366.59106680812226) rotate(0 118.25698554866358 -19.53323558299583)"
        >
            <path
                d="M211.78 -16.55 C219.74 -17.71, 227.7 -18.87, 236.51 -20.16 M211.78 -16.55 C219.79 -17.72, 227.8 -18.89, 236.51 -20.16"
                stroke="#1e1e1e"
                stroke-width="1"
                fill="none"
            ></path>
        </g>
        <g
            transform="translate(357.8423480437291 366.59106680812226) rotate(0 118.25698554866358 -19.53323558299583)"
        >
            <path
                d="M215.25 -33.3 C222.09 -29.07, 228.94 -24.84, 236.51 -20.16 M215.25 -33.3 C222.13 -29.04, 229.02 -24.79, 236.51 -20.16"
                stroke="#1e1e1e"
                stroke-width="1"
                fill="none"
            ></path>
        </g>
    </g>
    <mask id="mask-M0EonnSy34e1POpJgDUsM">
        <rect
            x="0"
            y="0"
            fill="#fff"
            width="694.3563191410562"
            height="505.2567481047751"
        ></rect>
        <rect
            x="427.62165090462804"
            y="290.42538551146936"
            fill="#000"
            width="82.19993591308594"
            height="75"
            opacity="1"
        ></rect>
    </mask>
    <g
        transform="translate(427.62165090462713 290.4253855114694) rotate(0 48.47768268776508 56.63244571365702)"
    >
        <text
            x="41.09996795654297"
            y="17.619999999999997"
            fill="#1e1e1e"
            text-anchor="middle"
            direction="ltr"
            dominant-baseline="alphabetic"
            class="arrow firebase-returned-an-error-0"
        >
            firebase
        </text>
        <text
            x="41.09996795654297"
            y="42.62"
            fill="#1e1e1e"
            text-anchor="middle"
            direction="ltr"
            dominant-baseline="alphabetic"
            class="arrow firebase-returned-an-error-0"
        >
            returned
        </text>
        <text
            x="41.09996795654297"
            y="67.62"
            fill="#1e1e1e"
            text-anchor="middle"
            direction="ltr"
            dominant-baseline="alphabetic"
            class="arrow firebase-returned-an-error-0"
        >
            an error
        </text>
    </g>
    <g
        stroke-linecap="round"
        transform="translate(392.0300624828569 63.403438364934615) rotate(0 103.53837618082139 57.5)"
    >
        <path
            d="M28.75 0 C62.98 0, 97.2 0, 178.33 0 C197.49 0, 207.08 9.58, 207.08 28.75 C207.08 49.81, 207.08 70.87, 207.08 86.25 C207.08 105.42, 197.49 115, 178.33 115 C140.02 115, 101.72 115, 28.75 115 C9.58 115, 0 105.42, 0 86.25 C0 65.99, 0 45.72, 0 28.75 C0 9.58, 9.58 0, 28.75 0"
            stroke="none"
            stroke-width="0"
            class="state-box idle-0"
        ></path>
        <path
            d="M28.75 0 C69.41 0, 110.06 0, 178.33 0 M28.75 0 C62.83 0, 96.91 0, 178.33 0 M178.33 0 C197.49 0, 207.08 9.58, 207.08 28.75 M178.33 0 C197.49 0, 207.08 9.58, 207.08 28.75 M207.08 28.75 C207.08 51.32, 207.08 73.89, 207.08 86.25 M207.08 28.75 C207.08 40.77, 207.08 52.79, 207.08 86.25 M207.08 86.25 C207.08 105.42, 197.49 115, 178.33 115 M207.08 86.25 C207.08 105.42, 197.49 115, 178.33 115 M178.33 115 C127.27 115, 76.21 115, 28.75 115 M178.33 115 C120.09 115, 61.85 115, 28.75 115 M28.75 115 C9.58 115, 0 105.42, 0 86.25 M28.75 115 C9.58 115, 0 105.42, 0 86.25 M0 86.25 C0 64.14, 0 42.03, 0 28.75 M0 86.25 C0 64.07, 0 41.89, 0 28.75 M0 28.75 C0 9.58, 9.58 0, 28.75 0 M0 28.75 C0 9.58, 9.58 0, 28.75 0"
            stroke="#1e1e1e"
            stroke-width="1"
            fill="none"
        ></path>
    </g>
    <g
        transform="translate(468.80045618076883 103.40343836493462) rotate(0 26.767982482910156 17.5)"
    >
        <text
            x="26.767982482910156"
            y="24.668"
            font-family="Excalifont, Xiaolai, sans-serif, Segoe UI Emoji"
            font-size="28px"
            fill="#1e1e1e"
            text-anchor="middle"
            direction="ltr"
            dominant-baseline="alphabetic"
        >
            Idle
        </text>
    </g>
    <g mask="url(#mask-CVrc5wLQHs3bX172iG-gf)" stroke-linecap="round">
        <g
            transform="translate(386.5300624828574 122.76794726491369) rotate(0 -77.15788624262859 116.04400114799384)"
        >
            <path
                d="M0 0 C-22.22 7.49, -107.59 6.23, -133.3 44.91 C-159.02 83.59, -150.81 200.89, -154.32 232.09 M0 0 C-22.22 7.49, -107.59 6.23, -133.3 44.91 C-159.02 83.59, -150.81 200.89, -154.32 232.09"
                stroke="#1e1e1e"
                stroke-width="1"
                fill="none"
            ></path>
        </g>
        <g
            transform="translate(386.5300624828574 122.76794726491369) rotate(0 -77.15788624262859 116.04400114799384)"
        >
            <path
                d="M-162.25 208.38 C-160.16 214.62, -158.08 220.86, -154.32 232.09 M-162.25 208.38 C-160.26 214.33, -158.27 220.28, -154.32 232.09"
                stroke="#1e1e1e"
                stroke-width="1"
                fill="none"
            ></path>
        </g>
        <g
            transform="translate(386.5300624828574 122.76794726491369) rotate(0 -77.15788624262859 116.04400114799384)"
        >
            <path
                d="M-145.16 208.83 C-147.57 214.95, -149.98 221.07, -154.32 232.09 M-145.16 208.83 C-147.46 214.66, -149.75 220.5, -154.32 232.09"
                stroke="#1e1e1e"
                stroke-width="1"
                fill="none"
            ></path>
        </g>
    </g>
    <mask id="mask-CVrc5wLQHs3bX172iG-gf">
        <rect
            x="0"
            y="0"
            fill="#fff"
            width="640.8458349681146"
            height="454.85594956090137"
        ></rect>
        <rect
            x="171.80548827798248"
            y="142.67970963556223"
            fill="#000"
            width="162.83985900878906"
            height="50"
            opacity="1"
        ></rect>
    </mask>
    <g
        transform="translate(171.80548827798248 142.6797096355623) rotate(0 137.5666879622463 96.13223877734531)"
    >
        <text
            x="81.41992950439453"
            y="17.619999999999997"
            fill="#1e1e1e"
            text-anchor="middle"
            direction="ltr"
            dominant-baseline="alphabetic"
            class="arrow user-clicked-login-button-0"
        >
            user clicked login
        </text>
        <text
            x="81.41992950439453"
            y="42.62"
            fill="#1e1e1e"
            text-anchor="middle"
            direction="ltr"
            dominant-baseline="alphabetic"
            class="arrow user-clicked-login-button-0"
        >
            button
        </text>
    </g>
    <g mask="url(#mask-41Rm7YzU-sNw_DWX7DwIt)" stroke-linecap="round">
        <g
            transform="translate(759.8915522096481 293.9316668388795) rotate(0 -80.49951153971642 -87.88589469366215)"
        >
            <path
                d="M0 0 C-3.34 -25.96, 6.77 -126.49, -20.07 -155.79 C-46.9 -185.08, -137.51 -172.44, -161 -175.77 M0 0 C-3.34 -25.96, 6.77 -126.49, -20.07 -155.79 C-46.9 -185.08, -137.51 -172.44, -161 -175.77"
                stroke="#1e1e1e"
                stroke-width="1"
                fill="none"
            ></path>
        </g>
        <g
            transform="translate(759.8915522096481 293.9316668388795) rotate(0 -80.49951153971642 -87.88589469366215)"
        >
            <path
                d="M-137.45 -184.16 C-142.5 -182.36, -147.55 -180.56, -161 -175.77 M-137.45 -184.16 C-144.15 -181.77, -150.85 -179.39, -161 -175.77"
                stroke="#1e1e1e"
                stroke-width="1"
                fill="none"
            ></path>
        </g>
        <g
            transform="translate(759.8915522096481 293.9316668388795) rotate(0 -80.49951153971642 -87.88589469366215)"
        >
            <path
                d="M-137.57 -167.06 C-142.59 -168.93, -147.62 -170.79, -161 -175.77 M-137.57 -167.06 C-144.23 -169.54, -150.9 -172.02, -161 -175.77"
                stroke="#1e1e1e"
                stroke-width="1"
                fill="none"
            ></path>
        </g>
    </g>
    <mask id="mask-41Rm7YzU-sNw_DWX7DwIt">
        <rect
            x="0"
            y="0"
            fill="#fff"
            width="1020.890575289081"
            height="569.7034562262038"
        ></rect>
        <rect
            x="714.2039412622426"
            y="125.64643359921916"
            fill="#000"
            width="51.239959716796875"
            height="25"
            opacity="1"
        ></rect>
    </mask>
    <g
        transform="translate(714.2039412622435 125.64643359921911) rotate(0 -34.811900592311304 80.39933854599818)"
    >
        <text
            x="25.619979858398438"
            y="17.619999999999997"
            fill="#1e1e1e"
            text-anchor="middle"
            direction="ltr"
            dominant-baseline="alphabetic"
            class="arrow reset-0"
        >
            reset
        </text>
    </g>
    <g
        stroke-linecap="round"
        transform="translate(500.3749460191898 587.6640754903095) rotate(0 136.27218319997064 57.5)"
    >
        <path
            d="M28.75 0 C81.28 0, 133.81 0, 243.79 0 C262.96 0, 272.54 9.58, 272.54 28.75 C272.54 41.32, 272.54 53.88, 272.54 86.25 C272.54 105.42, 262.96 115, 243.79 115 C197.98 115, 152.17 115, 28.75 115 C9.58 115, 0 105.42, 0 86.25 C0 73.87, 0 61.49, 0 28.75 C0 9.58, 9.58 0, 28.75 0"
            stroke="none"
            stroke-width="0"
            class="state-box auth-failed-0"
        ></path>
        <path
            d="M28.75 0 C110.84 0, 192.93 0, 243.79 0 M28.75 0 C110.36 0, 191.98 0, 243.79 0 M243.79 0 C262.96 0, 272.54 9.58, 272.54 28.75 M243.79 0 C262.96 0, 272.54 9.58, 272.54 28.75 M272.54 28.75 C272.54 50.62, 272.54 72.48, 272.54 86.25 M272.54 28.75 C272.54 47.66, 272.54 66.56, 272.54 86.25 M272.54 86.25 C272.54 105.42, 262.96 115, 243.79 115 M272.54 86.25 C272.54 105.42, 262.96 115, 243.79 115 M243.79 115 C184.34 115, 124.9 115, 28.75 115 M243.79 115 C200.22 115, 156.65 115, 28.75 115 M28.75 115 C9.58 115, 0 105.42, 0 86.25 M28.75 115 C9.58 115, 0 105.42, 0 86.25 M0 86.25 C0 70.6, 0 54.95, 0 28.75 M0 86.25 C0 68.62, 0 51, 0 28.75 M0 28.75 C0 9.58, 9.58 0, 28.75 0 M0 28.75 C0 9.58, 9.58 0, 28.75 0"
            stroke="#1e1e1e"
            stroke-width="1"
            fill="none"
        ></path>
    </g>
    <g
        transform="translate(560.6551706009964 627.6640754903095) rotate(0 75.99195861816406 17.5)"
    >
        <text
            x="75.99195861816406"
            y="24.668"
            font-family="Excalifont, Xiaolai, sans-serif, Segoe UI Emoji"
            font-size="28px"
            fill="#1e1e1e"
            text-anchor="middle"
            direction="ltr"
            dominant-baseline="alphabetic"
        >
            Auth failed
        </text>
    </g>
    <g mask="url(#mask-w1CRAUmJBAGQwUlGqFZ85)" stroke-linecap="round">
        <g
            transform="translate(364.6995606553364 439.85121127846014) rotate(0 138.263221118935 75.3246984568832)"
        >
            <path
                d="M0 0 C39.34 3.66, 189.98 -3.13, 236.07 21.97 C282.16 47.08, 269.78 129.2, 276.53 150.65 M0 0 C39.34 3.66, 189.98 -3.13, 236.07 21.97 C282.16 47.08, 269.78 129.2, 276.53 150.65"
                stroke="#1e1e1e"
                stroke-width="1"
                fill="none"
            ></path>
        </g>
        <g
            transform="translate(364.6995606553364 439.85121127846014) rotate(0 138.263221118935 75.3246984568832)"
        >
            <path
                d="M265.85 128.04 C269.47 135.7, 273.08 143.35, 276.53 150.65 M265.85 128.04 C269.83 136.47, 273.81 144.9, 276.53 150.65"
                stroke="#1e1e1e"
                stroke-width="1"
                fill="none"
            ></path>
        </g>
        <g
            transform="translate(364.6995606553364 439.85121127846014) rotate(0 138.263221118935 75.3246984568832)"
        >
            <path
                d="M282.88 126.47 C280.73 134.66, 278.58 142.84, 276.53 150.65 M282.88 126.47 C280.51 135.49, 278.14 144.5, 276.53 150.65"
                stroke="#1e1e1e"
                stroke-width="1"
                fill="none"
            ></path>
        </g>
    </g>
    <mask id="mask-w1CRAUmJBAGQwUlGqFZ85">
        <rect
            x="0"
            y="0"
            fill="#fff"
            width="741.2260028932064"
            height="690.5006081922265"
        ></rect>
        <rect
            x="585.3486395720452"
            y="449.3258086934087"
            fill="#000"
            width="30.8399658203125"
            height="25"
            opacity="1"
        ></rect>
    </mask>
    <g
        transform="translate(585.3486395720447 449.3258086934086) rotate(0 -82.38585779777372 65.85010104193464)"
    >
        <text
            x="15.41998291015625"
            y="17.619999999999997"
            fill="#1e1e1e"
            text-anchor="middle"
            direction="ltr"
            dominant-baseline="alphabetic"
            class="arrow fail-0"
        >
            fail
        </text>
    </g>
    <g
        stroke-linecap="round"
        transform="translate(591.4888366807522 290.28881841533035) rotate(0 136.27218319997064 57.5)"
    >
        <path
            d="M28.75 0 C95.35 0, 161.95 0, 243.79 0 C262.96 0, 272.54 9.58, 272.54 28.75 C272.54 50.35, 272.54 71.94, 272.54 86.25 C272.54 105.42, 262.96 115, 243.79 115 C186.96 115, 130.13 115, 28.75 115 C9.58 115, 0 105.42, 0 86.25 C0 71.3, 0 56.36, 0 28.75 C0 9.58, 9.58 0, 28.75 0"
            stroke="none"
            stroke-width="0"
            class="state-box facebook-is-unavailable-0"
        ></path>
        <path
            d="M28.75 0 C96.02 0, 163.3 0, 243.79 0 M28.75 0 C102.51 0, 176.27 0, 243.79 0 M243.79 0 C262.96 0, 272.54 9.58, 272.54 28.75 M243.79 0 C262.96 0, 272.54 9.58, 272.54 28.75 M272.54 28.75 C272.54 51.53, 272.54 74.31, 272.54 86.25 M272.54 28.75 C272.54 40.42, 272.54 52.08, 272.54 86.25 M272.54 86.25 C272.54 105.42, 262.96 115, 243.79 115 M272.54 86.25 C272.54 105.42, 262.96 115, 243.79 115 M243.79 115 C165.42 115, 87.04 115, 28.75 115 M243.79 115 C191.78 115, 139.77 115, 28.75 115 M28.75 115 C9.58 115, 0 105.42, 0 86.25 M28.75 115 C9.58 115, 0 105.42, 0 86.25 M0 86.25 C0 70.28, 0 54.32, 0 28.75 M0 86.25 C0 65.48, 0 44.72, 0 28.75 M0 28.75 C0 9.58, 9.58 0, 28.75 0 M0 28.75 C0 9.58, 9.58 0, 28.75 0"
            stroke="#1e1e1e"
            stroke-width="1"
            fill="none"
        ></path>
    </g>
    <g
        transform="translate(647.9190551590432 312.78881841533035) rotate(0 79.84196472167969 35)"
    >
        <text
            x="79.84196472167969"
            y="24.668"
            font-family="Excalifont, Xiaolai, sans-serif, Segoe UI Emoji"
            font-size="28px"
            fill="#1e1e1e"
            text-anchor="middle"
            direction="ltr"
            dominant-baseline="alphabetic"
        >
            Facebook is
        </text>
        <text
            x="79.84196472167969"
            y="59.668"
            font-family="Excalifont, Xiaolai, sans-serif, Segoe UI Emoji"
            font-size="28px"
            fill="#1e1e1e"
            text-anchor="middle"
            direction="ltr"
            dominant-baseline="alphabetic"
        >
            unavailable
        </text>
    </g>
    <g mask="url(#mask--FMT0ewvo9TWo6qXj5aqW)" stroke-linecap="round">
        <g
            transform="translate(773.3400336150139 641.2544760343686) rotate(0 -2.359303216436274 -284.0860617894669)"
        >
            <path
                d="M-0.73 0.59 C27.83 -12.57, 159.62 8.88, 170.71 -79.37 C181.8 -167.62, 123.25 -450.66, 65.81 -528.92 C8.36 -607.18, -133.9 -545.38, -173.98 -548.96 M1.09 -0.14 C29.59 -13.63, 158.78 6.75, 169.98 -81.17 C181.19 -169.08, 126.12 -449.27, 68.33 -527.61 C10.53 -605.95, -136.08 -547.41, -176.79 -551.21"
                stroke="#1e1e1e"
                stroke-width="1"
                fill="none"
            ></path>
        </g>
        <g
            transform="translate(773.3400336150139 641.2544760343686) rotate(0 -2.359303216436274 -284.0860617894669)"
        >
            <path
                d="M-154.64 -562.8 C-159.1 -559.39, -164.46 -558.45, -176.79 -551.21 M-154.64 -562.8 C-160.81 -559.9, -168.29 -555.83, -176.79 -551.21"
                stroke="#1e1e1e"
                stroke-width="1"
                fill="none"
            ></path>
        </g>
        <g
            transform="translate(773.3400336150139 641.2544760343686) rotate(0 -2.359303216436274 -284.0860617894669)"
        >
            <path
                d="M-152.37 -545.85 C-157.34 -546.6, -163.25 -549.8, -176.79 -551.21 M-152.37 -545.85 C-159.38 -548.02, -167.54 -549.02, -176.79 -551.21"
                stroke="#1e1e1e"
                stroke-width="1"
                fill="none"
            ></path>
        </g>
    </g>
    <mask id="mask--FMT0ewvo9TWo6qXj5aqW">
        <rect
            x="0"
            y="0"
            fill="#fff"
            width="1218.7590608397682"
            height="1290.7957164197792"
        ></rect>
        <rect
            x="891.34813505489"
            y="318.24313719661995"
            fill="#000"
            width="51.239959716796875"
            height="25"
            opacity="1"
        ></rect>
    </mask>
    <g
        transform="translate(891.34813505489 318.24313719661984) rotate(0 -120.36740465631192 38.92527704828183)"
    >
        <text
            x="25.619979858398438"
            y="17.619999999999997"
            fill="#1e1e1e"
            text-anchor="middle"
            direction="ltr"
            dominant-baseline="alphabetic"
            class="arrow reset-1"
        >
            reset
        </text>
    </g>
    <g
        stroke-linecap="round"
        transform="translate(93.4530351853191 839.5412369312594) rotate(0 136.2721831999704 57.5)"
    >
        <path
            d="M28.75 0 C90.6 0, 152.45 0, 243.79 0 C262.96 0, 272.54 9.58, 272.54 28.75 C272.54 43.32, 272.54 57.9, 272.54 86.25 C272.54 105.42, 262.96 115, 243.79 115 C196.82 115, 149.85 115, 28.75 115 C9.58 115, 0 105.42, 0 86.25 C0 68.4, 0 50.55, 0 28.75 C0 9.58, 9.58 0, 28.75 0"
            stroke="none"
            stroke-width="0"
            class="state-box got-profile-pic-0"
        ></path>
        <path
            d="M28.75 0 C88.42 0, 148.09 0, 243.79 0 M28.75 0 C111.16 0, 193.57 0, 243.79 0 M243.79 0 C262.96 0, 272.54 9.58, 272.54 28.75 M243.79 0 C262.96 0, 272.54 9.58, 272.54 28.75 M272.54 28.75 C272.54 50.38, 272.54 72.01, 272.54 86.25 M272.54 28.75 C272.54 45.57, 272.54 62.39, 272.54 86.25 M272.54 86.25 C272.54 105.42, 262.96 115, 243.79 115 M272.54 86.25 C272.54 105.42, 262.96 115, 243.79 115 M243.79 115 C187.17 115, 130.54 115, 28.75 115 M243.79 115 C170.44 115, 97.09 115, 28.75 115 M28.75 115 C9.58 115, 0 105.42, 0 86.25 M28.75 115 C9.58 115, 0 105.42, 0 86.25 M0 86.25 C0 71.97, 0 57.69, 0 28.75 M0 86.25 C0 65.42, 0 44.58, 0 28.75 M0 28.75 C0 9.58, 9.58 0, 28.75 0 M0 28.75 C0 9.58, 9.58 0, 28.75 0"
            stroke="#1e1e1e"
            stroke-width="1"
            fill="none"
        ></path>
    </g>
    <g
        transform="translate(130.74526843411786 879.5412369312594) rotate(0 98.97994995117188 17.5)"
    >
        <text
            x="98.97994995117188"
            y="24.668"
            font-family="Excalifont, Xiaolai, sans-serif, Segoe UI Emoji"
            font-size="28px"
            fill="#1e1e1e"
            text-anchor="middle"
            direction="ltr"
            dominant-baseline="alphabetic"
        >
            Got profile pic
        </text>
    </g>
    <g mask="url(#mask-CAMqFEMojs_ISkZv6nxwO)" stroke-linecap="round">
        <g
            transform="translate(103.95303518531955 849.2163970672541) rotate(0 99.98502538915909 -399.57775084951805)"
        >
            <path
                d="M-0.46 0.12 C-15.85 -64.44, -103.86 -258.84, -92.11 -386.94 C-80.36 -515.04, 5.72 -703.54, 70.06 -768.48 C134.39 -833.43, 256.49 -775.26, 293.9 -776.59 M1.5 -0.86 C-14.05 -65.27, -104.23 -257.77, -92.99 -385.5 C-81.74 -513.23, 4.5 -702.27, 68.98 -767.24 C133.47 -832.21, 256.55 -773.89, 293.92 -775.32"
                stroke="#1e1e1e"
                stroke-width="1"
                fill="none"
            ></path>
        </g>
        <g
            transform="translate(103.95303518531955 849.2163970672541) rotate(0 99.98502538915909 -399.57775084951805)"
        >
            <path
                d="M269.26 -771.24 C277.31 -772.21, 284.65 -774.72, 293.92 -775.32 M269.26 -771.24 C276.56 -772.09, 283.01 -774.01, 293.92 -775.32"
                stroke="#1e1e1e"
                stroke-width="1"
                fill="none"
            ></path>
        </g>
        <g
            transform="translate(103.95303518531955 849.2163970672541) rotate(0 99.98502538915909 -399.57775084951805)"
        >
            <path
                d="M272.41 -788.04 C279.52 -783.67, 285.85 -780.82, 293.92 -775.32 M272.41 -788.04 C278.74 -784.04, 284.28 -781.12, 293.92 -775.32"
                stroke="#1e1e1e"
                stroke-width="1"
                fill="none"
            ></path>
        </g>
    </g>
    <mask id="mask-CAMqFEMojs_ISkZv6nxwO">
        <rect
            x="0"
            y="0"
            fill="#fff"
            width="590.5435503220383"
            height="1726.1307368361888"
        ></rect>
        <rect
            x="34.59454622709973"
            y="223.24680617674733"
            fill="#000"
            width="66.69996643066406"
            height="75"
            opacity="1"
        ></rect>
    </mask>
    <g
        transform="translate(34.59454622709973 223.24680617674733) rotate(0 169.3435143473789 226.3918400409887)"
    >
        <text
            x="33.34998321533203"
            y="17.619999999999997"
            fill="#1e1e1e"
            text-anchor="middle"
            direction="ltr"
            dominant-baseline="alphabetic"
            class="arrow logout-button-clicked-0"
        >
            logout
        </text>
        <text
            x="33.34998321533203"
            y="42.62"
            fill="#1e1e1e"
            text-anchor="middle"
            direction="ltr"
            dominant-baseline="alphabetic"
            class="arrow logout-button-clicked-0"
        >
            button
        </text>
        <text
            x="33.34998321533203"
            y="67.62"
            fill="#1e1e1e"
            text-anchor="middle"
            direction="ltr"
            dominant-baseline="alphabetic"
            class="arrow logout-button-clicked-0"
        >
            clicked
        </text>
    </g>
    <g mask="url(#mask-89CghjQu3hIxbXLPcZPfR)" stroke-linecap="round">
        <g
            transform="translate(235.24640748746242 711.2111264980583) rotate(0 -0.18793714904882108 63.163281006117586)"
        >
            <path
                d="M0 0 C-0.06 21.05, -0.31 105.27, -0.38 126.33 M0 0 C-0.06 21.05, -0.31 105.27, -0.38 126.33"
                stroke="#1e1e1e"
                stroke-width="1"
                fill="none"
            ></path>
        </g>
        <g
            transform="translate(235.24640748746242 711.2111264980583) rotate(0 -0.18793714904882108 63.163281006117586)"
        >
            <path
                d="M-8.86 102.81 C-6.1 110.44, -3.35 118.07, -0.38 126.33 M-8.86 102.81 C-6.23 110.09, -3.61 117.36, -0.38 126.33"
                stroke="#1e1e1e"
                stroke-width="1"
                fill="none"
            ></path>
        </g>
        <g
            transform="translate(235.24640748746242 711.2111264980583) rotate(0 -0.18793714904882108 63.163281006117586)"
        >
            <path
                d="M8.24 102.86 C5.45 110.47, 2.65 118.09, -0.38 126.33 M8.24 102.86 C5.58 110.12, 2.91 117.38, -0.38 126.33"
                stroke="#1e1e1e"
                stroke-width="1"
                fill="none"
            ></path>
        </g>
    </g>
    <mask id="mask-89CghjQu3hIxbXLPcZPfR">
        <rect
            x="0"
            y="0"
            fill="#fff"
            width="335.62228178556006"
            height="937.5376885102935"
        ></rect>
        <rect
            x="187.68851336819898"
            y="749.374407504176"
            fill="#000"
            width="94.73991394042969"
            height="50"
            opacity="1"
        ></rect>
    </mask>
    <g
        transform="translate(187.68851336819898 749.374407504176) rotate(0 47.369956970214616 24.999999999999886)"
    >
        <text
            x="47.369956970214844"
            y="17.619999999999997"
            fill="#1e1e1e"
            text-anchor="middle"
            direction="ltr"
            dominant-baseline="alphabetic"
            class="arrow download-profile-pic-0"
        >
            download
        </text>
        <text
            x="47.369956970214844"
            y="42.62"
            fill="#1e1e1e"
            text-anchor="middle"
            direction="ltr"
            dominant-baseline="alphabetic"
            class="arrow download-profile-pic-0"
        >
            profile pic
        </text>
    </g>
    <g
        stroke-linecap="round"
        transform="translate(493.8528256312825 829.1410243254647) rotate(0 136.27218319997064 57.5)"
    >
        <path
            d="M28.75 0 C104.32 0, 179.89 0, 243.79 0 C262.96 0, 272.54 9.58, 272.54 28.75 C272.54 46.37, 272.54 63.99, 272.54 86.25 C272.54 105.42, 262.96 115, 243.79 115 C162.94 115, 82.08 115, 28.75 115 C9.58 115, 0 105.42, 0 86.25 C0 66.7, 0 47.16, 0 28.75 C0 9.58, 9.58 0, 28.75 0"
            stroke="none"
            stroke-width="0"
            class="state-box failed-to-get-profile-pic-0"
        ></path>
        <path
            d="M28.75 0 C73.1 0, 117.45 0, 243.79 0 M28.75 0 C99.62 0, 170.49 0, 243.79 0 M243.79 0 C262.96 0, 272.54 9.58, 272.54 28.75 M243.79 0 C262.96 0, 272.54 9.58, 272.54 28.75 M272.54 28.75 C272.54 42.68, 272.54 56.61, 272.54 86.25 M272.54 28.75 C272.54 43.34, 272.54 57.94, 272.54 86.25 M272.54 86.25 C272.54 105.42, 262.96 115, 243.79 115 M272.54 86.25 C272.54 105.42, 262.96 115, 243.79 115 M243.79 115 C185.22 115, 126.65 115, 28.75 115 M243.79 115 C164.9 115, 86 115, 28.75 115 M28.75 115 C9.58 115, 0 105.42, 0 86.25 M28.75 115 C9.58 115, 0 105.42, 0 86.25 M0 86.25 C0 65.93, 0 45.61, 0 28.75 M0 86.25 C0 69.08, 0 51.91, 0 28.75 M0 28.75 C0 9.58, 9.58 0, 28.75 0 M0 28.75 C0 9.58, 9.58 0, 28.75 0"
            stroke="#1e1e1e"
            stroke-width="1"
            fill="none"
        ></path>
    </g>
    <g
        transform="translate(540.5810558893586 851.6410243254647) rotate(0 89.54395294189453 35)"
    >
        <text
            x="89.54395294189453"
            y="24.668"
            font-family="Excalifont, Xiaolai, sans-serif, Segoe UI Emoji"
            font-size="28px"
            fill="#1e1e1e"
            text-anchor="middle"
            direction="ltr"
            dominant-baseline="alphabetic"
        >
            Failed to get
        </text>
        <text
            x="89.54395294189453"
            y="59.668"
            font-family="Excalifont, Xiaolai, sans-serif, Segoe UI Emoji"
            font-size="28px"
            fill="#1e1e1e"
            text-anchor="middle"
            direction="ltr"
            dominant-baseline="alphabetic"
        >
            profile pic
        </text>
    </g>
    <g mask="url(#mask-EhCcCHvbikXqp-VZS2u3E)" stroke-linecap="round">
        <g
            transform="translate(360.66208068106835 688.1164357318628) rotate(0 95.06314787674728 71.3246984568832)"
        >
            <path
                d="M0 0 C18.54 6.86, 79.58 17.4, 111.27 41.17 C142.96 64.95, 176.98 125.74, 190.13 142.65 M0 0 C18.54 6.86, 79.58 17.4, 111.27 41.17 C142.96 64.95, 176.98 125.74, 190.13 142.65"
                stroke="#1e1e1e"
                stroke-width="1"
                fill="none"
            ></path>
        </g>
        <g
            transform="translate(360.66208068106835 688.1164357318628) rotate(0 95.06314787674728 71.3246984568832)"
        >
            <path
                d="M169.88 127.99 C176.87 133.05, 183.86 138.11, 190.13 142.65 M169.88 127.99 C176.77 132.98, 183.67 137.97, 190.13 142.65"
                stroke="#1e1e1e"
                stroke-width="1"
                fill="none"
            ></path>
        </g>
        <g
            transform="translate(360.66208068106835 688.1164357318628) rotate(0 95.06314787674728 71.3246984568832)"
        >
            <path
                d="M184.04 118.4 C186.14 126.78, 188.24 135.15, 190.13 142.65 M184.04 118.4 C186.11 126.66, 188.19 134.92, 190.13 142.65"
                stroke="#1e1e1e"
                stroke-width="1"
                fill="none"
            ></path>
        </g>
    </g>
    <mask id="mask-EhCcCHvbikXqp-VZS2u3E">
        <rect
            x="0"
            y="0"
            fill="#fff"
            width="650.7883764345629"
            height="930.7658326456292"
        ></rect>
        <rect
            x="456.5108666290271"
            y="716.7912284593114"
            fill="#000"
            width="30.8399658203125"
            height="25"
            opacity="1"
        ></rect>
    </mask>
    <g
        transform="translate(456.5108666290271 716.7912284593112) rotate(0 -0.7856380712119062 42.649905729434636)"
    >
        <text
            x="15.41998291015625"
            y="17.619999999999997"
            fill="#1e1e1e"
            text-anchor="middle"
            direction="ltr"
            dominant-baseline="alphabetic"
            class="arrow fail-1"
        >
            fail
        </text>
    </g>
    <g mask="url(#mask-kuhBawxL5nsHRanrSuzD5)" stroke-linecap="round">
        <g
            transform="translate(763.8971920312238 866.2157885930994) rotate(0 39.86191020341221 -428.0106639152173)"
        >
            <path
                d="M0.49 0.19 C42.04 -21.82, 233.33 3.45, 249.29 -131.5 C265.25 -266.46, 166.35 -699.45, 96.25 -809.53 C26.16 -919.6, -126.61 -795.08, -171.28 -791.96 M-0.72 -0.75 C40.71 -23.14, 232.46 2.01, 248.56 -133.12 C264.66 -268.24, 165.81 -701.81, 95.88 -811.52 C25.94 -921.23, -126.76 -794.9, -171.05 -791.36"
                stroke="#1e1e1e"
                stroke-width="1"
                fill="none"
            ></path>
        </g>
        <g
            transform="translate(763.8971920312238 866.2157885930994) rotate(0 39.86191020341221 -428.0106639152173)"
        >
            <path
                d="M-152.65 -808.29 C-157.76 -802.44, -161.98 -796.81, -171.05 -791.36 M-152.65 -808.29 C-159.64 -802.22, -165.19 -796.77, -171.05 -791.36"
                stroke="#1e1e1e"
                stroke-width="1"
                fill="none"
            ></path>
        </g>
        <g
            transform="translate(763.8971920312238 866.2157885930994) rotate(0 39.86191020341221 -428.0106639152173)"
        >
            <path
                d="M-146.08 -792.5 C-153.24 -791.37, -159.43 -790.46, -171.05 -791.36 M-146.08 -792.5 C-155.4 -792.1, -163.29 -792.26, -171.05 -791.36"
                stroke="#1e1e1e"
                stroke-width="1"
                fill="none"
            ></path>
        </g>
    </g>
    <mask id="mask-kuhBawxL5nsHRanrSuzD5">
        <rect
            x="0"
            y="0"
            fill="#fff"
            width="1284.0115370368035"
            height="1776.408477550098"
        ></rect>
        <rect
            x="943.1514210324312"
            y="374.93410266584567"
            fill="#000"
            width="51.239959716796875"
            height="25"
            opacity="1"
        ></rect>
    </mask>
    <g
        transform="translate(943.1514210324303 374.9341026658458) rotate(0 -139.39231879779481 63.271022012036326)"
    >
        <text
            x="25.619979858398438"
            y="17.619999999999997"
            fill="#1e1e1e"
            text-anchor="middle"
            direction="ltr"
            dominant-baseline="alphabetic"
            class="arrow reset-2"
        >
            reset
        </text>
    </g>
</svg>
