<svg version="1.1" xmlns="http://www.w3.org/2000/svg" viewBox="0 0 1373.9536770741229 1205.1173947863135" width="1373.9536770741229" height="1205.1173947863135"><!-- svg-source:excalidraw -->
      <metadata></metadata>
      <defs>
            <style>
.state-box {fill:none;}
.state-box.failure {fill:red;}
.state-box.success {fill:green;}

text.arrow {
    fill:black;
    font-size:20px;
}
text.arrow.failure {fill:red;}
text.arrow.success {fill:green;}

path.arrow {stroke:black;}
path.arrow.failure {stroke:red;}
path.arrow.success {stroke:green;}
* {font-family:Arial;}
    </style>
      </defs>
      <g stroke-linecap="round" transform="translate(594.112853788999 587.0863886024135) rotate(0 103.53837618082139 57.16386930136093)">
            <path d="M28.58 0 C81.23 0, 133.88 0, 178.49 0 C197.55 0, 207.08 9.53, 207.08 28.58 C207.08 40.65, 207.08 52.71, 207.08 85.75 C207.08 104.8, 197.55 114.33, 178.49 114.33 C122.49 114.33, 66.48 114.33, 28.58 114.33 C9.53 114.33, 0 104.8, 0 85.75 C0 73.44, 0 61.13, 0 28.58 C0 9.53, 9.53 0, 28.58 0" stroke="none" stroke-width="0" class="state-box idle"></path>
            <path d="M28.58 0 C71.87 0, 115.15 0, 178.49 0 M28.58 0 C86.38 0, 144.17 0, 178.49 0 M178.49 0 C197.55 0, 207.08 9.53, 207.08 28.58 M178.49 0 C197.55 0, 207.08 9.53, 207.08 28.58 M207.08 28.58 C207.08 49.64, 207.08 70.69, 207.08 85.75 M207.08 28.58 C207.08 49.91, 207.08 71.24, 207.08 85.75 M207.08 85.75 C207.08 104.8, 197.55 114.33, 178.49 114.33 M207.08 85.75 C207.08 104.8, 197.55 114.33, 178.49 114.33 M178.49 114.33 C148.38 114.33, 118.26 114.33, 28.58 114.33 M178.49 114.33 C138.93 114.33, 99.37 114.33, 28.58 114.33 M28.58 114.33 C9.53 114.33, 0 104.8, 0 85.75 M28.58 114.33 C9.53 114.33, 0 104.8, 0 85.75 M0 85.75 C0 64.28, 0 42.82, 0 28.58 M0 85.75 C0 67.77, 0 49.8, 0 28.58 M0 28.58 C0 9.53, 9.53 0, 28.58 0 M0 28.58 C0 9.53, 9.53 0, 28.58 0" stroke="#1e1e1e" stroke-width="1" fill="none"></path>
      </g>
      <g transform="translate(671.1512299698202 626.7502579037745) rotate(0 26.5 17.5)">
            <text x="26.5" y="24.668" font-size="28px" fill="#1e1e1e" text-anchor="middle" direction="ltr" dominant-baseline="alphabetic">Idle</text>
      </g>
      <g stroke-linecap="round" transform="translate(108.08153299400374 593.3355813649192) rotate(0 134.48668589264958 57.5)">
            <path d="M28.75 0 C106.62 0, 184.49 0, 240.22 0 M28.75 0 C100.59 0, 172.43 0, 240.22 0 M240.22 0 C259.39 0, 268.97 9.58, 268.97 28.75 M240.22 0 C259.39 0, 268.97 9.58, 268.97 28.75 M268.97 28.75 C268.97 48.13, 268.97 67.51, 268.97 86.25 M268.97 28.75 C268.97 45.73, 268.97 62.71, 268.97 86.25 M268.97 86.25 C268.97 105.42, 259.39 115, 240.22 115 M268.97 86.25 C268.97 105.42, 259.39 115, 240.22 115 M240.22 115 C188.65 115, 137.09 115, 28.75 115 M240.22 115 C182.81 115, 125.4 115, 28.75 115 M28.75 115 C9.58 115, 0 105.42, 0 86.25 M28.75 115 C9.58 115, 0 105.42, 0 86.25 M0 86.25 C0 66.67, 0 47.09, 0 28.75 M0 86.25 C0 72.97, 0 59.69, 0 28.75 M0 28.75 C0 9.58, 9.58 0, 28.75 0 M0 28.75 C0 9.58, 9.58 0, 28.75 0" stroke="#1e1e1e" stroke-width="1" class="state-box sign-in-link-opened-on-different-browser"></path>
      </g>
      <g transform="translate(124.06821888665354 598.3355813649192) rotate(0 118.5 52.5)">
            <text x="118.5" y="24.668" font-size="28px" fill="#1e1e1e" text-anchor="middle" direction="ltr" dominant-baseline="alphabetic">Sign-in link</text>
            <text x="118.5" y="59.668" font-size="28px" fill="#1e1e1e" text-anchor="middle" direction="ltr" dominant-baseline="alphabetic">opened on</text>
            <text x="118.5" y="94.668" font-size="28px" fill="#1e1e1e" text-anchor="middle" direction="ltr" dominant-baseline="alphabetic">different browser</text>
      </g>
      <g stroke-linecap="round" transform="translate(225.6007246077852 272.03931695083185) rotate(0 134.48668589264958 57.5)">
            <path d="M28.75 0 C76.49 0, 124.22 0, 240.22 0 M28.75 0 C112.7 0, 196.65 0, 240.22 0 M240.22 0 C259.39 0, 268.97 9.58, 268.97 28.75 M240.22 0 C259.39 0, 268.97 9.58, 268.97 28.75 M268.97 28.75 C268.97 43.14, 268.97 57.52, 268.97 86.25 M268.97 28.75 C268.97 49.47, 268.97 70.19, 268.97 86.25 M268.97 86.25 C268.97 105.42, 259.39 115, 240.22 115 M268.97 86.25 C268.97 105.42, 259.39 115, 240.22 115 M240.22 115 C181.82 115, 123.42 115, 28.75 115 M240.22 115 C178.36 115, 116.5 115, 28.75 115 M28.75 115 C9.58 115, 0 105.42, 0 86.25 M28.75 115 C9.58 115, 0 105.42, 0 86.25 M0 86.25 C0 66.91, 0 47.57, 0 28.75 M0 86.25 C0 64.29, 0 42.33, 0 28.75 M0 28.75 C0 9.58, 9.58 0, 28.75 0 M0 28.75 C0 9.58, 9.58 0, 28.75 0" stroke="#1e1e1e" stroke-width="1" class="state-box email-submitted-to-firebase"></path>
      </g>
      <g transform="translate(232.087410500435 294.53931695083185) rotate(0 128 35)">
            <text x="128" y="24.668" font-size="28px" fill="#1e1e1e" text-anchor="middle" direction="ltr" dominant-baseline="alphabetic">Email submitted to</text>
            <text x="128" y="59.668" font-size="28px" fill="#1e1e1e" text-anchor="middle" direction="ltr" dominant-baseline="alphabetic">Firebase</text>
      </g>
      <g stroke-linecap="round" transform="translate(592.8858653206403 266.7770973550806) rotate(0 136.27218319997064 57.5)">
            <path d="M28.75 0 C78.09 0, 127.43 0, 243.79 0 M28.75 0 C80.91 0, 133.07 0, 243.79 0 M243.79 0 C262.96 0, 272.54 9.58, 272.54 28.75 M243.79 0 C262.96 0, 272.54 9.58, 272.54 28.75 M272.54 28.75 C272.54 42.69, 272.54 56.62, 272.54 86.25 M272.54 28.75 C272.54 48.68, 272.54 68.61, 272.54 86.25 M272.54 86.25 C272.54 105.42, 262.96 115, 243.79 115 M272.54 86.25 C272.54 105.42, 262.96 115, 243.79 115 M243.79 115 C180 115, 116.2 115, 28.75 115 M243.79 115 C173.18 115, 102.56 115, 28.75 115 M28.75 115 C9.58 115, 0 105.42, 0 86.25 M28.75 115 C9.58 115, 0 105.42, 0 86.25 M0 86.25 C0 68.92, 0 51.59, 0 28.75 M0 86.25 C0 71.73, 0 57.2, 0 28.75 M0 28.75 C0 9.58, 9.58 0, 28.75 0 M0 28.75 C0 9.58, 9.58 0, 28.75 0" stroke="#1e1e1e" stroke-width="1" class="state-box waiting-for-user-to-click-link-in-email"></path>
      </g>
      <g transform="translate(598.1580485206109 289.2770973550806) rotate(0 131 35)">
            <text x="131" y="24.668" font-size="28px" fill="#1e1e1e" text-anchor="middle" direction="ltr" dominant-baseline="alphabetic">Waiting for user to</text>
            <text x="131" y="59.668" font-size="28px" fill="#1e1e1e" text-anchor="middle" direction="ltr" dominant-baseline="alphabetic">click link in email</text>
      </g>
      <g stroke-linecap="round" transform="translate(994.2921356718484 257.0197677958207) rotate(0 136.27218319997064 57.5)">
            <path d="M28.75 0 C96.02 0, 163.3 0, 243.79 0 M28.75 0 C102.51 0, 176.27 0, 243.79 0 M243.79 0 C262.96 0, 272.54 9.58, 272.54 28.75 M243.79 0 C262.96 0, 272.54 9.58, 272.54 28.75 M272.54 28.75 C272.54 51.53, 272.54 74.31, 272.54 86.25 M272.54 28.75 C272.54 40.42, 272.54 52.08, 272.54 86.25 M272.54 86.25 C272.54 105.42, 262.96 115, 243.79 115 M272.54 86.25 C272.54 105.42, 262.96 115, 243.79 115 M243.79 115 C165.42 115, 87.04 115, 28.75 115 M243.79 115 C191.78 115, 139.77 115, 28.75 115 M28.75 115 C9.58 115, 0 105.42, 0 86.25 M28.75 115 C9.58 115, 0 105.42, 0 86.25 M0 86.25 C0 70.28, 0 54.32, 0 28.75 M0 86.25 C0 65.48, 0 44.72, 0 28.75 M0 28.75 C0 9.58, 9.58 0, 28.75 0 M0 28.75 C0 9.58, 9.58 0, 28.75 0" stroke="#1e1e1e" stroke-width="1" class="state-box bad-email-address"></path>
      </g>
      <g transform="translate(1008.0643188718191 297.0197677958207) rotate(0 122.5 17.5)">
            <text x="122.5" y="24.668" font-size="28px" fill="#1e1e1e" text-anchor="middle" direction="ltr" dominant-baseline="alphabetic">Bad email address</text>
      </g>
      <g stroke-linecap="round" transform="translate(1091.4093106741816 580.0344580231839) rotate(0 136.27218319997064 57.5)">
            <path d="M28.75 0 C99.93 0, 171.1 0, 243.79 0 M28.75 0 C114.07 0, 199.39 0, 243.79 0 M243.79 0 C262.96 0, 272.54 9.58, 272.54 28.75 M243.79 0 C262.96 0, 272.54 9.58, 272.54 28.75 M272.54 28.75 C272.54 42.86, 272.54 56.97, 272.54 86.25 M272.54 28.75 C272.54 49.25, 272.54 69.76, 272.54 86.25 M272.54 86.25 C272.54 105.42, 262.96 115, 243.79 115 M272.54 86.25 C272.54 105.42, 262.96 115, 243.79 115 M243.79 115 C171.91 115, 100.02 115, 28.75 115 M243.79 115 C199.31 115, 154.82 115, 28.75 115 M28.75 115 C9.58 115, 0 105.42, 0 86.25 M28.75 115 C9.58 115, 0 105.42, 0 86.25 M0 86.25 C0 69.86, 0 53.47, 0 28.75 M0 86.25 C0 74.4, 0 62.54, 0 28.75 M0 28.75 C0 9.58, 9.58 0, 28.75 0 M0 28.75 C0 9.58, 9.58 0, 28.75 0" stroke="#1e1e1e" stroke-width="1" class="state-box sign-in-link-opened-on-same-browser"></path>
      </g>
      <g transform="translate(1121.1814938741522 585.0344580231839) rotate(0 106.5 52.5)">
            <text x="106.5" y="24.668" font-size="28px" fill="#1e1e1e" text-anchor="middle" direction="ltr" dominant-baseline="alphabetic">Sign-in link</text>
            <text x="106.5" y="59.668" font-size="28px" fill="#1e1e1e" text-anchor="middle" direction="ltr" dominant-baseline="alphabetic">opened on same</text>
            <text x="106.5" y="94.668" font-size="28px" fill="#1e1e1e" text-anchor="middle" direction="ltr" dominant-baseline="alphabetic">browser</text>
      </g>
      <g stroke-linecap="round" transform="translate(586.1186809992128 868.091814489027) rotate(0 136.27218319997064 57.5)">
            <path d="M28.75 0 C90.2 0, 151.65 0, 243.79 0 M28.75 0 C98.82 0, 168.89 0, 243.79 0 M243.79 0 C262.96 0, 272.54 9.58, 272.54 28.75 M243.79 0 C262.96 0, 272.54 9.58, 272.54 28.75 M272.54 28.75 C272.54 46.46, 272.54 64.16, 272.54 86.25 M272.54 28.75 C272.54 43.55, 272.54 58.36, 272.54 86.25 M272.54 86.25 C272.54 105.42, 262.96 115, 243.79 115 M272.54 86.25 C272.54 105.42, 262.96 115, 243.79 115 M243.79 115 C162.14 115, 80.5 115, 28.75 115 M243.79 115 C160.22 115, 76.64 115, 28.75 115 M28.75 115 C9.58 115, 0 105.42, 0 86.25 M28.75 115 C9.58 115, 0 105.42, 0 86.25 M0 86.25 C0 65.54, 0 44.83, 0 28.75 M0 86.25 C0 64.36, 0 42.47, 0 28.75 M0 28.75 C0 9.58, 9.58 0, 28.75 0 M0 28.75 C0 9.58, 9.58 0, 28.75 0" stroke="#1e1e1e" stroke-width="1" class="state-box authorising-via-firebase"></path>
      </g>
      <g transform="translate(620.3908641991834 890.591814489027) rotate(0 102 35)">
            <text x="102" y="24.668" font-size="28px" fill="#1e1e1e" text-anchor="middle" direction="ltr" dominant-baseline="alphabetic">Authorising via</text>
            <text x="102" y="59.668" font-size="28px" fill="#1e1e1e" text-anchor="middle" direction="ltr" dominant-baseline="alphabetic">Firebase</text>
      </g>
      <g stroke-linecap="round" transform="translate(80.51003577576375 870.7616587993754) rotate(0 134.48668589264958 57.5)">
            <path d="M28.75 0 C71.42 0, 114.1 0, 240.22 0 M28.75 0 C79.5 0, 130.24 0, 240.22 0 M240.22 0 C259.39 0, 268.97 9.58, 268.97 28.75 M240.22 0 C259.39 0, 268.97 9.58, 268.97 28.75 M268.97 28.75 C268.97 47.82, 268.97 66.89, 268.97 86.25 M268.97 28.75 C268.97 45.19, 268.97 61.63, 268.97 86.25 M268.97 86.25 C268.97 105.42, 259.39 115, 240.22 115 M268.97 86.25 C268.97 105.42, 259.39 115, 240.22 115 M240.22 115 C167.94 115, 95.66 115, 28.75 115 M240.22 115 C160.41 115, 80.6 115, 28.75 115 M28.75 115 C9.58 115, 0 105.42, 0 86.25 M28.75 115 C9.58 115, 0 105.42, 0 86.25 M0 86.25 C0 71.91, 0 57.58, 0 28.75 M0 86.25 C0 65.19, 0 44.13, 0 28.75 M0 28.75 C0 9.58, 9.58 0, 28.75 0 M0 28.75 C0 9.58, 9.58 0, 28.75 0" stroke="#1e1e1e" stroke-width="1" class="state-box waiting-for-email-address-in-gui"></path>
      </g>
      <g transform="translate(102.49672166841356 893.2616587993754) rotate(0 112.5 35)">
            <text x="112.5" y="24.668" font-size="28px" fill="#1e1e1e" text-anchor="middle" direction="ltr" dominant-baseline="alphabetic">Waiting for email</text>
            <text x="112.5" y="59.668" font-size="28px" fill="#1e1e1e" text-anchor="middle" direction="ltr" dominant-baseline="alphabetic">address in GUI</text>
      </g>
      <g stroke-linecap="round" transform="translate(596.2364460991025 1080.1173947863135) rotate(0 136.27218319997064 57.5)">
            <path d="M28.75 0 C110.8 0, 192.84 0, 243.79 0 M28.75 0 C86.56 0, 144.38 0, 243.79 0 M243.79 0 C262.96 0, 272.54 9.58, 272.54 28.75 M243.79 0 C262.96 0, 272.54 9.58, 272.54 28.75 M272.54 28.75 C272.54 42.46, 272.54 56.17, 272.54 86.25 M272.54 28.75 C272.54 46.21, 272.54 63.68, 272.54 86.25 M272.54 86.25 C272.54 105.42, 262.96 115, 243.79 115 M272.54 86.25 C272.54 105.42, 262.96 115, 243.79 115 M243.79 115 C174.09 115, 104.39 115, 28.75 115 M243.79 115 C166.88 115, 89.97 115, 28.75 115 M28.75 115 C9.58 115, 0 105.42, 0 86.25 M28.75 115 C9.58 115, 0 105.42, 0 86.25 M0 86.25 C0 74.09, 0 61.94, 0 28.75 M0 86.25 C0 71.33, 0 56.41, 0 28.75 M0 28.75 C0 9.58, 9.58 0, 28.75 0 M0 28.75 C0 9.58, 9.58 0, 28.75 0" stroke="#1e1e1e" stroke-width="1" class="state-box signed-in"></path>
      </g>
      <g transform="translate(672.0086292990732 1120.1173947863135) rotate(0 60.5 17.5)">
            <text x="60.5" y="24.668" font-size="28px" fill="#1e1e1e" text-anchor="middle" direction="ltr" dominant-baseline="alphabetic">Signed-in</text>
      </g>
      <g mask="url(#mask-dBRB1qP6bkcvI_AYK9K7M)" stroke-linecap="round">
            <g transform="translate(733.1037799324854 987.6371421086411) rotate(0 0.8927259501192566 46.42246456774183)">
                  <path d="M0 0 C0.3 15.47, 1.49 77.37, 1.79 92.84 M0 0 C0.3 15.47, 1.49 77.37, 1.79 92.84" stroke="#1e1e1e" stroke-width="1" fill="none"></path>
            </g>
            <g transform="translate(733.1037799324854 987.6371421086411) rotate(0 0.8927259501192566 46.42246456774183)">
                  <path d="M-7.22 69.52 C-5.1 75.01, -2.98 80.5, 1.79 92.84 M-7.22 69.52 C-4.97 75.33, -2.73 81.14, 1.79 92.84" stroke="#1e1e1e" stroke-width="1" fill="none"></path>
            </g>
            <g transform="translate(733.1037799324854 987.6371421086411) rotate(0 0.8927259501192566 46.42246456774183)">
                  <path d="M9.88 69.19 C7.98 74.76, 6.07 80.33, 1.79 92.84 M9.88 69.19 C7.87 75.08, 5.85 80.98, 1.79 92.84" stroke="#1e1e1e" stroke-width="1" fill="none"></path>
            </g>
      </g>
      <mask id="mask-dBRB1qP6bkcvI_AYK9K7M">
            <rect x="0" y="0" fill="#fff" width="834.8892318327239" height="1180.4820712441247"></rect>
            <rect x="686.4965058826056" y="1024.0596066763828" fill="#000" width="95" height="20" opacity="1"></rect>
      </mask>
      <g transform="translate(686.4965058826056 1024.0596066763828) rotate(0 47.499999999999545 10)">
            <text x="47.5" y="14.096" fill="#1e1e1e" text-anchor="middle" direction="ltr" dominant-baseline="alphabetic" class="arrow ok-response">ok response</text>
      </g>
      <g mask="url(#mask-YdrcrX93OIJlQdbNFMb7z)" stroke-linecap="round">
            <g transform="translate(595.5813214388086 576.2500934136023) rotate(0 -114.11607291499877 -94.70853914464067)">
                  <path d="M0 0 C-32.09 -12.42, -154.48 -42.96, -192.52 -74.52 C-230.56 -106.09, -222.28 -170.27, -228.23 -189.42 M0 0 C-32.09 -12.42, -154.48 -42.96, -192.52 -74.52 C-230.56 -106.09, -222.28 -170.27, -228.23 -189.42" stroke="#1e1e1e" stroke-width="1" fill="none"></path>
            </g>
            <g transform="translate(595.5813214388086 576.2500934136023) rotate(0 -114.11607291499877 -94.70853914464067)">
                  <path d="M-217.05 -167.06 C-220.02 -173.01, -223 -178.96, -228.23 -189.42 M-217.05 -167.06 C-220.17 -173.3, -223.3 -179.55, -228.23 -189.42" stroke="#1e1e1e" stroke-width="1" fill="none"></path>
            </g>
            <g transform="translate(595.5813214388086 576.2500934136023) rotate(0 -114.11607291499877 -94.70853914464067)">
                  <path d="M-234.03 -165.1 C-232.49 -171.57, -230.95 -178.04, -228.23 -189.42 M-234.03 -165.1 C-232.41 -171.89, -230.79 -178.69, -228.23 -189.42" stroke="#1e1e1e" stroke-width="1" fill="none"></path>
            </g>
      </g>
      <mask id="mask-YdrcrX93OIJlQdbNFMb7z">
            <rect x="0" y="0" fill="#fff" width="923.8134672688061" height="865.6671717028836"></rect>
            <rect x="315.0590033946355" y="471.72534615445534" fill="#000" width="176" height="60" opacity="1"></rect>
      </mask>
      <g transform="translate(315.0590033946355 471.72534615445534) rotate(0 166.40624512917475 9.816208114506253)">
            <text x="88" y="14.096" fill="#1e1e1e" text-anchor="middle" direction="ltr" dominant-baseline="alphabetic" class="arrow user-inputs-email-address-and-clicks-signin-button">user inputs email</text>
            <text x="88" y="34.096000000000004" fill="#1e1e1e" text-anchor="middle" direction="ltr" dominant-baseline="alphabetic" class="arrow user-inputs-email-address-and-clicks-signin-button">address &amp; clicks signin</text>
            <text x="88" y="54.096000000000004" fill="#1e1e1e" text-anchor="middle" direction="ltr" dominant-baseline="alphabetic" class="arrow user-inputs-email-address-and-clicks-signin-button">button</text>
      </g>
      <g mask="url(#mask-_jBM0xn4zXRzigc2xyOJr)" stroke-linecap="round">
            <g transform="translate(463.92217556754304 266.2665222090527) rotate(0 115.2483098945836 -27.35408265538237)">
                  <path d="M0 0 C18.79 -9.12, 74.31 -53.99, 112.72 -54.71 C151.14 -55.42, 210.87 -12.7, 230.5 -4.3 M0 0 C18.79 -9.12, 74.31 -53.99, 112.72 -54.71 C151.14 -55.42, 210.87 -12.7, 230.5 -4.3" stroke="#1e1e1e" stroke-width="1" fill="none"></path>
            </g>
            <g transform="translate(463.92217556754304 266.2665222090527) rotate(0 115.2483098945836 -27.35408265538237)">
                  <path d="M205.79 -8.1 C212.77 -7.03, 219.75 -5.95, 230.5 -4.3 M205.79 -8.1 C214.41 -6.78, 223.02 -5.45, 230.5 -4.3" stroke="#1e1e1e" stroke-width="1" fill="none"></path>
            </g>
            <g transform="translate(463.92217556754304 266.2665222090527) rotate(0 115.2483098945836 -27.35408265538237)">
                  <path d="M214.02 -23.1 C218.67 -17.78, 223.33 -12.47, 230.5 -4.3 M214.02 -23.1 C219.76 -16.54, 225.51 -9.98, 230.5 -4.3" stroke="#1e1e1e" stroke-width="1" fill="none"></path>
            </g>
      </g>
      <mask id="mask-_jBM0xn4zXRzigc2xyOJr">
            <rect x="0" y="0" fill="#fff" width="794.4187953567102" height="420.97468751981745"></rect>
            <rect x="529.1455509474445" y="201.55835689828797" fill="#000" width="95" height="20" opacity="1"></rect>
      </mask>
      <g transform="translate(529.1455509474445 201.55835689828797) rotate(0 50.02493451468263 37.34963572596665)">
            <text x="47.5" y="14.096" fill="#1e1e1e" text-anchor="middle" direction="ltr" dominant-baseline="alphabetic" class="arrow ok-response-1">ok response</text>
      </g>
      <g mask="url(#mask-M0EonnSy34e1POpJgDUsM)" stroke-linecap="round">
            <g transform="translate(368.1252854150666 268.73815915569793) rotate(0 370.03551529423294 -76.86201975933184)">
                  <path d="M0 0 C60.17 -25.62, 237.67 -151.39, 361.02 -153.72 C484.36 -156.05, 676.9 -37.27, 740.07 -13.97 M0 0 C60.17 -25.62, 237.67 -151.39, 361.02 -153.72 C484.36 -156.05, 676.9 -37.27, 740.07 -13.97" stroke="#1e1e1e" stroke-width="1" fill="none"></path>
            </g>
            <g transform="translate(368.1252854150666 268.73815915569793) rotate(0 370.03551529423294 -76.86201975933184)">
                  <path d="M715.18 -16.29 C723.19 -15.55, 731.2 -14.8, 740.07 -13.97 M715.18 -16.29 C723.24 -15.54, 731.3 -14.79, 740.07 -13.97" stroke="#1e1e1e" stroke-width="1" fill="none"></path>
            </g>
            <g transform="translate(368.1252854150666 268.73815915569793) rotate(0 370.03551529423294 -76.86201975933184)">
                  <path d="M722.49 -31.75 C728.15 -26.03, 733.81 -20.31, 740.07 -13.97 M722.49 -31.75 C728.19 -26, 733.88 -20.24, 740.07 -13.97" stroke="#1e1e1e" stroke-width="1" fill="none"></path>
            </g>
      </g>
      <mask id="mask-M0EonnSy34e1POpJgDUsM">
            <rect x="0" y="0" fill="#fff" width="1208.1963160035325" height="522.4621986743616"></rect>
            <rect x="665.6440875537473" y="95.01411963703424" fill="#000" width="127" height="40" opacity="1"></rect>
      </mask>
      <g transform="translate(665.6440875537482 95.01411963703424) rotate(0 72.51671315555177 96.8451255179793)">
            <text x="63.5" y="14.096" fill="#1e1e1e" text-anchor="middle" direction="ltr" dominant-baseline="alphabetic" class="arrow firebase-returns-an-error">firebase</text>
            <text x="63.5" y="34.096000000000004" fill="#1e1e1e" text-anchor="middle" direction="ltr" dominant-baseline="alphabetic" class="arrow firebase-returns-an-error">returns an error</text>
      </g>
      <g mask="url(#mask-HECG3y40wsNAfa28ysPeL)" stroke-linecap="round">
            <g transform="translate(1226.0060067513828 253.59871803754987) rotate(0 -476.10569980955097 -103.6473146724071)">
                  <path d="M0 0 C-86.11 -37.27, -357.96 -226.32, -516.66 -223.6 C-675.36 -220.88, -879.62 -23.68, -952.21 16.3 M0 0 C-86.11 -37.27, -357.96 -226.32, -516.66 -223.6 C-675.36 -220.88, -879.62 -23.68, -952.21 16.3" stroke="#1e1e1e" stroke-width="1" fill="none"></path>
            </g>
            <g transform="translate(1226.0060067513828 253.59871803754987) rotate(0 -476.10569980955097 -103.6473146724071)">
                  <path d="M-938.11 -4.34 C-942.39 1.93, -946.67 8.19, -952.21 16.3 M-938.11 -4.34 C-942.31 1.81, -946.5 7.95, -952.21 16.3" stroke="#1e1e1e" stroke-width="1" fill="none"></path>
            </g>
            <g transform="translate(1226.0060067513828 253.59871803754987) rotate(0 -476.10569980955097 -103.6473146724071)">
                  <path d="M-928.14 9.56 C-935.44 11.6, -942.75 13.65, -952.21 16.3 M-928.14 9.56 C-935.3 11.57, -942.47 13.57, -952.21 16.3" stroke="#1e1e1e" stroke-width="1" fill="none"></path>
            </g>
      </g>
      <mask id="mask-HECG3y40wsNAfa28ysPeL">
            <rect x="0" y="0" fill="#fff" width="2278.2174063704847" height="593.5015247678355"></rect>
            <rect x="586.3462338375202" y="10" fill="#000" width="246" height="40" opacity="1"></rect>
      </mask>
      <g transform="translate(586.3462338375211 10) rotate(0 163.5540731043111 139.93690232089722)">
            <text x="123" y="14.096" fill="#1e1e1e" text-anchor="middle" direction="ltr" dominant-baseline="alphabetic" class="arrow user-changes-email-address-and-clicks-sign-in-with-email-button">user changes email address and</text>
            <text x="123" y="34.096000000000004" fill="#1e1e1e" text-anchor="middle" direction="ltr" dominant-baseline="alphabetic" class="arrow user-changes-email-address-and-clicks-sign-in-with-email-button">clicks sign-in with email button</text>
      </g>
      <g mask="url(#mask-b0UBATHtfGbEqDrga9qDU)" stroke-linecap="round">
            <g transform="translate(858.4120606709098 379.37292613122) rotate(0 122.86285570760765 104.22964956596783)">
                  <path d="M0 0 C40.95 34.74, 204.77 173.72, 245.73 208.46 M0 0 C40.95 34.74, 204.77 173.72, 245.73 208.46" stroke="#1e1e1e" stroke-width="1" fill="none"></path>
            </g>
            <g transform="translate(858.4120606709098 379.37292613122) rotate(0 122.86285570760765 104.22964956596783)">
                  <path d="M222.28 199.78 C230.03 202.65, 237.78 205.52, 245.73 208.46 M222.28 199.78 C228.87 202.22, 235.46 204.66, 245.73 208.46" stroke="#1e1e1e" stroke-width="1" fill="none"></path>
            </g>
            <g transform="translate(858.4120606709098 379.37292613122) rotate(0 122.86285570760765 104.22964956596783)">
                  <path d="M233.34 186.74 C237.44 193.92, 241.53 201.1, 245.73 208.46 M233.34 186.74 C236.82 192.85, 240.31 198.95, 245.73 208.46" stroke="#1e1e1e" stroke-width="1" fill="none"></path>
            </g>
      </g>
      <mask id="mask-b0UBATHtfGbEqDrga9qDU">
            <rect x="0" y="0" fill="#fff" width="1204.137772086125" height="687.8322252631557"></rect>
            <rect x="894.2749163785165" y="473.6025756971878" fill="#000" width="174" height="20" opacity="1"></rect>
      </mask>
      <g transform="translate(894.2749163785174 473.60257569718783) rotate(0 87.00000000000045 10.000000000000028)">
            <text x="87" y="14.096" fill="#1e1e1e" text-anchor="middle" direction="ltr" dominant-baseline="alphabetic" class="arrow user-clicks-link-in-email">user clicks link in email</text>
      </g>
      <g mask="url(#mask-KjzpC819cy1rh1HMAg9uS)" stroke-linecap="round">
            <g transform="translate(733.8023224515559 384.19582386240495) rotate(0 -177.87370883612653 111.19704479180285)">
                  <path d="M0 0 C-9.32 15.14, 3.39 53.77, -55.9 90.84 C-115.19 127.9, -305.77 200.47, -355.75 222.39 M0 0 C-9.32 15.14, 3.39 53.77, -55.9 90.84 C-115.19 127.9, -305.77 200.47, -355.75 222.39" stroke="#1e1e1e" stroke-width="1" fill="none"></path>
            </g>
            <g transform="translate(733.8023224515559 384.19582386240495) rotate(0 -177.87370883612653 111.19704479180285)">
                  <path d="M-337.27 205.55 C-341.63 209.53, -346 213.51, -355.75 222.39 M-337.27 205.55 C-341.41 209.33, -345.56 213.1, -355.75 222.39" stroke="#1e1e1e" stroke-width="1" fill="none"></path>
            </g>
            <g transform="translate(733.8023224515559 384.19582386240495) rotate(0 -177.87370883612653 111.19704479180285)">
                  <path d="M-330.77 221.37 C-336.67 221.61, -342.56 221.85, -355.75 222.39 M-330.77 221.37 C-336.37 221.6, -341.97 221.83, -355.75 222.39" stroke="#1e1e1e" stroke-width="1" fill="none"></path>
            </g>
      </g>
      <mask id="mask-KjzpC819cy1rh1HMAg9uS">
            <rect x="0" y="0" fill="#fff" width="1189.549740123809" height="706.5899134460107"></rect>
            <rect x="590.9027040266374" y="465.0328259718352" fill="#000" width="174" height="20" opacity="1"></rect>
      </mask>
      <g transform="translate(590.9027040266374 465.03282597183517) rotate(0 -34.9740904112075 30.360042682372637)">
            <text x="87" y="14.096" fill="#1e1e1e" text-anchor="middle" direction="ltr" dominant-baseline="alphabetic" class="arrow user-clicks-link-in-email-1">user clicks link in email</text>
      </g>
      <g mask="url(#mask-SiJW_LTPlV0HWBtfts-Uc)" stroke-linecap="round">
            <g transform="translate(94.4898957713408 869.6596569619952) rotate(0 51.2013191807639 -282.9921014859609)">
                  <path d="M0 0 C-4.66 -84.63, -49.72 -413.42, -27.99 -507.76 C-6.26 -602.09, 104 -556.28, 130.39 -565.98 M0 0 C-4.66 -84.63, -49.72 -413.42, -27.99 -507.76 C-6.26 -602.09, 104 -556.28, 130.39 -565.98" stroke="#1e1e1e" stroke-width="1" fill="none"></path>
            </g>
            <g transform="translate(94.4898957713408 869.6596569619952) rotate(0 51.2013191807639 -282.9921014859609)">
                  <path d="M106.71 -557.98 C116.11 -561.16, 125.51 -564.34, 130.39 -565.98 M106.71 -557.98 C114.68 -560.68, 122.65 -563.37, 130.39 -565.98" stroke="#1e1e1e" stroke-width="1" fill="none"></path>
            </g>
            <g transform="translate(94.4898957713408 869.6596569619952) rotate(0 51.2013191807639 -282.9921014859609)">
                  <path d="M107.11 -575.08 C116.35 -571.47, 125.6 -567.86, 130.39 -565.98 M107.11 -575.08 C114.94 -572.02, 122.78 -568.96, 130.39 -565.98" stroke="#1e1e1e" stroke-width="1" fill="none"></path>
            </g>
      </g>
      <mask id="mask-SiJW_LTPlV0HWBtfts-Uc">
            <rect x="0" y="0" fill="#fff" width="352.8723256755502" height="1535.6438599339172"></rect>
            <rect x="10" y="341.90427871403244" fill="#000" width="113" height="40" opacity="1"></rect>
      </mask>
      <g transform="translate(10 341.90427871403233) rotate(0 132.74622431231046 243.3620732699215)">
            <text x="56.5" y="14.096" fill="#1e1e1e" text-anchor="middle" direction="ltr" dominant-baseline="alphabetic" class="arrow different-email-address">different email</text>
            <text x="56.5" y="34.096000000000004" fill="#1e1e1e" text-anchor="middle" direction="ltr" dominant-baseline="alphabetic" class="arrow different-email-address">address</text>
      </g>
      <g mask="url(#mask-O7yMK3nNlCUOOLO7EP9b_)" stroke-linecap="round">
            <g transform="translate(253.8921920927246 709.3355813649192) rotate(0 -2.8496715625642537 78.9974790740859)">
                  <path d="M0 0 C-0.95 26.33, -4.75 131.66, -5.7 157.99 M0 0 C-0.95 26.33, -4.75 131.66, -5.7 157.99" stroke="#1e1e1e" stroke-width="1" fill="none"></path>
            </g>
            <g transform="translate(253.8921920927246 709.3355813649192) rotate(0 -2.8496715625642537 78.9974790740859)">
                  <path d="M-13.4 134.21 C-11.64 139.64, -9.88 145.08, -5.7 157.99 M-13.4 134.21 C-11.14 141.18, -8.88 148.15, -5.7 157.99" stroke="#1e1e1e" stroke-width="1" fill="none"></path>
            </g>
            <g transform="translate(253.8921920927246 709.3355813649192) rotate(0 -2.8496715625642537 78.9974790740859)">
                  <path d="M3.69 134.83 C1.55 140.12, -0.6 145.41, -5.7 157.99 M3.69 134.83 C0.94 141.62, -1.81 148.41, -5.7 157.99" stroke="#1e1e1e" stroke-width="1" fill="none"></path>
            </g>
      </g>
      <mask id="mask-O7yMK3nNlCUOOLO7EP9b_">
            <rect x="0" y="0" fill="#fff" width="359.5915352178531" height="967.330539513091"></rect>
            <rect x="164.54252053016035" y="768.3330604390053" fill="#000" width="173" height="40" opacity="1"></rect>
      </mask>
      <g transform="translate(164.54252053016035 768.3330604390052) rotate(0 86.5 19.999999999999943)">
            <text x="86.5" y="14.096" fill="#1e1e1e" text-anchor="middle" direction="ltr" dominant-baseline="alphabetic" class="arrow request-email-address-from-user-again">request email address</text>
            <text x="86.5" y="34.096000000000004" fill="#1e1e1e" text-anchor="middle" direction="ltr" dominant-baseline="alphabetic" class="arrow request-email-address-from-user-again">from user again</text>
      </g>
      <g mask="url(#mask-kfNC5o3O9d3dNvL4e3AGR)" stroke-linecap="round">
            <g transform="translate(354.15053629657314 905.038658556471) rotate(0 118.7867446842888 3.8551465805998646)">
                  <path d="M0 0 C39.6 1.29, 197.98 6.43, 237.57 7.71 M0 0 C39.6 1.29, 197.98 6.43, 237.57 7.71" stroke="#1e1e1e" stroke-width="1" fill="none"></path>
            </g>
            <g transform="translate(354.15053629657314 905.038658556471) rotate(0 118.7867446842888 3.8551465805998646)">
                  <path d="M213.82 15.49 C218.68 13.9, 223.55 12.3, 237.57 7.71 M213.82 15.49 C219.18 13.74, 224.54 11.98, 237.57 7.71" stroke="#1e1e1e" stroke-width="1" fill="none"></path>
            </g>
            <g transform="translate(354.15053629657314 905.038658556471) rotate(0 118.7867446842888 3.8551465805998646)">
                  <path d="M214.37 -1.6 C219.13 0.31, 223.88 2.22, 237.57 7.71 M214.37 -1.6 C219.61 0.5, 224.85 2.61, 237.57 7.71" stroke="#1e1e1e" stroke-width="1" fill="none"></path>
            </g>
      </g>
      <mask id="mask-kfNC5o3O9d3dNvL4e3AGR">
            <rect x="0" y="0" fill="#fff" width="691.7240256651507" height="1012.7489517176707"></rect>
            <rect x="441.43728098086194" y="878.8938051370708" fill="#000" width="63" height="60" opacity="1"></rect>
      </mask>
      <g transform="translate(441.43728098086194 878.8938051370708) rotate(0 31.5 29.999999999999943)">
            <text x="31.5" y="14.096" fill="#1e1e1e" text-anchor="middle" direction="ltr" dominant-baseline="alphabetic" class="arrow same-email-address">same</text>
            <text x="31.5" y="34.096000000000004" fill="#1e1e1e" text-anchor="middle" direction="ltr" dominant-baseline="alphabetic" class="arrow same-email-address">email</text>
            <text x="31.5" y="54.096000000000004" fill="#1e1e1e" text-anchor="middle" direction="ltr" dominant-baseline="alphabetic" class="arrow same-email-address">address</text>
      </g>
      <g mask="url(#mask-P8lVoI2iywIRWjKN7dqR4)" stroke-linecap="round">
            <g transform="translate(1239.2285388255473 698.4669922386777) rotate(0 -191.57284222683847 115.29302408586432)">
                  <path d="M0 0 C-6.99 29.31, 21.93 137.42, -41.92 175.85 C-105.78 214.28, -326.28 221.46, -383.15 230.59 M0 0 C-6.99 29.31, 21.93 137.42, -41.92 175.85 C-105.78 214.28, -326.28 221.46, -383.15 230.59" stroke="#1e1e1e" stroke-width="1" fill="none"></path>
            </g>
            <g transform="translate(1239.2285388255473 698.4669922386777) rotate(0 -191.57284222683847 115.29302408586432)">
                  <path d="M-360.61 219.76 C-368.73 223.66, -376.85 227.56, -383.15 230.59 M-360.61 219.76 C-365.13 221.93, -369.65 224.11, -383.15 230.59" stroke="#1e1e1e" stroke-width="1" fill="none"></path>
            </g>
            <g transform="translate(1239.2285388255473 698.4669922386777) rotate(0 -191.57284222683847 115.29302408586432)">
                  <path d="M-358.93 236.78 C-367.65 234.55, -376.38 232.32, -383.15 230.59 M-358.93 236.78 C-363.78 235.54, -368.64 234.3, -383.15 230.59" stroke="#1e1e1e" stroke-width="1" fill="none"></path>
            </g>
      </g>
      <mask id="mask-P8lVoI2iywIRWjKN7dqR4">
            <rect x="0" y="0" fill="#fff" width="1722.3742232792242" height="1029.0530404104063"></rect>
            <rect x="1145.8038916444602" y="844.317980709939" fill="#000" width="103" height="60" opacity="1"></rect>
      </mask>
      <g transform="translate(1145.8038916444602 844.3179807099389) rotate(0 -97.8115771646676 -30.557964385396986)">
            <text x="51.5" y="14.096" fill="#1e1e1e" text-anchor="middle" direction="ltr" dominant-baseline="alphabetic" class="arrow automatically-submit-to-firebase">automatically</text>
            <text x="51.5" y="34.096000000000004" fill="#1e1e1e" text-anchor="middle" direction="ltr" dominant-baseline="alphabetic" class="arrow automatically-submit-to-firebase">submit to</text>
            <text x="51.5" y="54.096000000000004" fill="#1e1e1e" text-anchor="middle" direction="ltr" dominant-baseline="alphabetic" class="arrow automatically-submit-to-firebase">firebase</text>
      </g>
      <g mask="url(#mask-SW0IMbtayBPF_CyOp5KL5)" stroke-linecap="round">
            <g transform="translate(658.0895075166504 583.0473331334412) rotate(0 35.99998474121094 -23.500003814697266)">
                  <path d="M0 0 C6 -7.83, 24 -47, 36 -47 C48 -47, 66 -7.83, 72 0 M0 0 C6 -7.83, 24 -47, 36 -47 C48 -47, 66 -7.83, 72 0" stroke="#1e1e1e" stroke-width="1" fill="none"></path>
            </g>
            <g transform="translate(658.0895075166504 583.0473331334412) rotate(0 35.99998474121094 -23.500003814697266)">
                  <path d="M52.59 -15.76 C58.01 -11.35, 63.44 -6.95, 72 0 M52.59 -15.76 C59.13 -10.44, 65.68 -5.13, 72 0" stroke="#1e1e1e" stroke-width="1" fill="none"></path>
            </g>
            <g transform="translate(658.0895075166504 583.0473331334412) rotate(0 35.99998474121094 -23.500003814697266)">
                  <path d="M67.26 -24.55 C68.58 -17.69, 69.91 -10.83, 72 0 M67.26 -24.55 C68.86 -16.27, 70.46 -8, 72 0" stroke="#1e1e1e" stroke-width="1" fill="none"></path>
            </g>
      </g>
      <mask id="mask-SW0IMbtayBPF_CyOp5KL5">
            <rect x="0" y="0" fill="#fff" width="830.0894769990723" height="730.0473407628357"></rect>
            <rect x="625.5894159639165" y="506.0473255040465" fill="#000" width="137" height="60" opacity="1"></rect>
      </mask>
      <g transform="translate(625.5894159639165 506.0473255040466) rotate(0 68.50007629394531 53.50000381469573)">
            <text x="68.5" y="14.096" fill="#1e1e1e" text-anchor="middle" direction="ltr" dominant-baseline="alphabetic" class="arrow user-clicks-sign-in-button-with-data-missing">user clicks sign-in</text>
            <text x="68.5" y="34.096000000000004" fill="#1e1e1e" text-anchor="middle" direction="ltr" dominant-baseline="alphabetic" class="arrow user-clicks-sign-in-button-with-data-missing">button with data</text>
            <text x="68.5" y="54.096000000000004" fill="#1e1e1e" text-anchor="middle" direction="ltr" dominant-baseline="alphabetic" class="arrow user-clicks-sign-in-button-with-data-missing">missing</text>
      </g>
</svg>