<svg
    version="1.1"
    xmlns="http://www.w3.org/2000/svg"
    viewBox="0 0 1023.2457983850336 1212.5813823808942"
    width="1023.2457983850336"
    height="1212.5813823808942"
>
    <!-- svg-source:excalidraw -->
    <metadata></metadata>
    <defs>
        <style>
            .state-box {
                fill: none;
            }
            .state-box.failure {
                fill: red;
            }
            .state-box.success {
                fill: green;
            }

            text.arrow {
                fill: black;
                font-size: 20px;
            }
            text.arrow.failure {
                fill: red;
            }
            text.arrow.success {
                fill: green;
            }

            path.arrow {
                stroke: black;
            }
            path.arrow.failure {
                stroke: red;
            }
            path.arrow.success {
                stroke: green;
            }
            * {
                font-family: Arial;
            }
        </style>
    </defs>
    <g
        stroke-linecap="round"
        transform="translate(106.46291830722112 296.3961509594294) rotate(0 134.48668589264958 57.5)"
    >
        <path
            d="M28.75 0 C98.32 0, 167.89 0, 240.22 0 C259.39 0, 268.97 9.58, 268.97 28.75 C268.97 51.54, 268.97 74.33, 268.97 86.25 C268.97 105.42, 259.39 115, 240.22 115 C186.88 115, 133.54 115, 28.75 115 C9.58 115, 0 105.42, 0 86.25 C0 68, 0 49.74, 0 28.75 C0 9.58, 9.58 0, 28.75 0"
            stroke="none"
            stroke-width="0"
            class="state-box redirecting-to-facebook-0"
        ></path>
        <path
            d="M28.75 0 C76.49 0, 124.22 0, 240.22 0 M28.75 0 C112.7 0, 196.65 0, 240.22 0 M240.22 0 C259.39 0, 268.97 9.58, 268.97 28.75 M240.22 0 C259.39 0, 268.97 9.58, 268.97 28.75 M268.97 28.75 C268.97 43.14, 268.97 57.52, 268.97 86.25 M268.97 28.75 C268.97 49.47, 268.97 70.19, 268.97 86.25 M268.97 86.25 C268.97 105.42, 259.39 115, 240.22 115 M268.97 86.25 C268.97 105.42, 259.39 115, 240.22 115 M240.22 115 C181.82 115, 123.42 115, 28.75 115 M240.22 115 C178.36 115, 116.5 115, 28.75 115 M28.75 115 C9.58 115, 0 105.42, 0 86.25 M28.75 115 C9.58 115, 0 105.42, 0 86.25 M0 86.25 C0 66.91, 0 47.57, 0 28.75 M0 86.25 C0 64.29, 0 42.33, 0 28.75 M0 28.75 C0 9.58, 9.58 0, 28.75 0 M0 28.75 C0 9.58, 9.58 0, 28.75 0"
            stroke="#1e1e1e"
            stroke-width="1"
            fill="none"
        ></path>
    </g>
    <g
        transform="translate(143.14565675114045 318.8961509594294) rotate(0 97.80394744873047 35)"
    >
        <text
            x="97.80394744873047"
            y="24.668"
            font-family="Excalifont, Xiaolai, sans-serif, Segoe UI Emoji"
            font-size="28px"
            fill="#1e1e1e"
            text-anchor="middle"
            direction="ltr"
            dominant-baseline="alphabetic"
        >
            Redirecting to
        </text>
        <text
            x="97.80394744873047"
            y="59.668"
            font-family="Excalifont, Xiaolai, sans-serif, Segoe UI Emoji"
            font-size="28px"
            fill="#1e1e1e"
            text-anchor="middle"
            direction="ltr"
            dominant-baseline="alphabetic"
        >
            facebook
        </text>
    </g>
    <g
        stroke-linecap="round"
        transform="translate(90.69107591183501 845.3200399744908) rotate(0 136.2721831999704 57.5)"
    >
        <path
            d="M28.75 0 C110.72 0, 192.68 0, 243.79 0 C262.96 0, 272.54 9.58, 272.54 28.75 C272.54 47.48, 272.54 66.22, 272.54 86.25 C272.54 105.42, 262.96 115, 243.79 115 C171.18 115, 98.57 115, 28.75 115 C9.58 115, 0 105.42, 0 86.25 C0 68.92, 0 51.6, 0 28.75 C0 9.58, 9.58 0, 28.75 0"
            stroke="none"
            stroke-width="0"
            class="state-box signed-in-0"
        ></path>
        <path
            d="M28.75 0 C110.8 0, 192.84 0, 243.79 0 M28.75 0 C86.56 0, 144.38 0, 243.79 0 M243.79 0 C262.96 0, 272.54 9.58, 272.54 28.75 M243.79 0 C262.96 0, 272.54 9.58, 272.54 28.75 M272.54 28.75 C272.54 42.46, 272.54 56.17, 272.54 86.25 M272.54 28.75 C272.54 46.21, 272.54 63.68, 272.54 86.25 M272.54 86.25 C272.54 105.42, 262.96 115, 243.79 115 M272.54 86.25 C272.54 105.42, 262.96 115, 243.79 115 M243.79 115 C174.09 115, 104.39 115, 28.75 115 M243.79 115 C166.88 115, 89.97 115, 28.75 115 M28.75 115 C9.58 115, 0 105.42, 0 86.25 M28.75 115 C9.58 115, 0 105.42, 0 86.25 M0 86.25 C0 74.09, 0 61.94, 0 28.75 M0 86.25 C0 71.33, 0 56.41, 0 28.75 M0 28.75 C0 9.58, 9.58 0, 28.75 0 M0 28.75 C0 9.58, 9.58 0, 28.75 0"
            stroke="#1e1e1e"
            stroke-width="1"
            fill="none"
        ></path>
    </g>
    <g
        transform="translate(167.1832908500869 885.3200399744908) rotate(0 59.77996826171875 17.5)"
    >
        <text
            x="59.77996826171875"
            y="24.668"
            font-family="Excalifont, Xiaolai, sans-serif, Segoe UI Emoji"
            font-size="28px"
            fill="#1e1e1e"
            text-anchor="middle"
            direction="ltr"
            dominant-baseline="alphabetic"
        >
            Signed-in
        </text>
    </g>
    <g mask="url(#mask-M0EonnSy34e1POpJgDUsM)" stroke-linecap="round">
        <g
            transform="translate(375.22203344259424 347.96462188503574) rotate(0 109.5902476743147 -0.07366419848609951)"
        >
            <path
                d="M0 0 C17.59 0, 69.02 0.03, 105.55 0 C142.08 -0.03, 200.24 -0.13, 219.18 -0.16 M0 0 C17.59 0, 69.02 0.03, 105.55 0 C142.08 -0.03, 200.24 -0.13, 219.18 -0.16"
                stroke="#1e1e1e"
                stroke-width="1"
                fill="none"
            ></path>
        </g>
        <g
            transform="translate(375.22203344259424 347.96462188503574) rotate(0 109.5902476743147 -0.07366419848609951)"
        >
            <path
                d="M195.7 8.43 C203.26 5.66, 210.81 2.9, 219.18 -0.16 M195.7 8.43 C203.31 5.65, 210.91 2.87, 219.18 -0.16"
                stroke="#1e1e1e"
                stroke-width="1"
                fill="none"
            ></path>
        </g>
        <g
            transform="translate(375.22203344259424 347.96462188503574) rotate(0 109.5902476743147 -0.07366419848609951)"
        >
            <path
                d="M195.67 -8.67 C203.24 -5.93, 210.8 -3.19, 219.18 -0.16 M195.67 -8.67 C203.29 -5.92, 210.9 -3.16, 219.18 -0.16"
                stroke="#1e1e1e"
                stroke-width="1"
                fill="none"
            ></path>
        </g>
    </g>
    <mask id="mask-M0EonnSy34e1POpJgDUsM">
        <rect
            x="0"
            y="0"
            fill="#fff"
            width="694.4025287912236"
            height="448.12549759495545"
        ></rect>
        <rect
            x="439.6678808998472"
            y="310.46557673747145"
            fill="#000"
            width="82.19993591308594"
            height="75"
            opacity="1"
        ></rect>
    </mask>
    <g
        transform="translate(439.66788089984675 310.4655767374714) rotate(0 45.144400217062184 37.42538094907819)"
    >
        <text
            x="41.09996795654297"
            y="17.619999999999997"
            fill="#1e1e1e"
            text-anchor="middle"
            direction="ltr"
            dominant-baseline="alphabetic"
            class="arrow firebase-returned-an-error-0"
        >
            firebase
        </text>
        <text
            x="41.09996795654297"
            y="42.62"
            fill="#1e1e1e"
            text-anchor="middle"
            direction="ltr"
            dominant-baseline="alphabetic"
            class="arrow firebase-returned-an-error-0"
        >
            returned
        </text>
        <text
            x="41.09996795654297"
            y="67.62"
            fill="#1e1e1e"
            text-anchor="middle"
            direction="ltr"
            dominant-baseline="alphabetic"
            class="arrow firebase-returned-an-error-0"
        >
            an error
        </text>
    </g>
    <g
        stroke-linecap="round"
        transform="translate(392.0762721330243 64.77691714790276) rotate(0 103.53837618082139 57.5)"
    >
        <path
            d="M28.75 0 C62.98 0, 97.2 0, 178.33 0 C197.49 0, 207.08 9.58, 207.08 28.75 C207.08 49.81, 207.08 70.87, 207.08 86.25 C207.08 105.42, 197.49 115, 178.33 115 C140.02 115, 101.72 115, 28.75 115 C9.58 115, 0 105.42, 0 86.25 C0 65.99, 0 45.72, 0 28.75 C0 9.58, 9.58 0, 28.75 0"
            stroke="none"
            stroke-width="0"
            class="state-box idle-0"
        ></path>
        <path
            d="M28.75 0 C69.41 0, 110.06 0, 178.33 0 M28.75 0 C62.83 0, 96.91 0, 178.33 0 M178.33 0 C197.49 0, 207.08 9.58, 207.08 28.75 M178.33 0 C197.49 0, 207.08 9.58, 207.08 28.75 M207.08 28.75 C207.08 51.32, 207.08 73.89, 207.08 86.25 M207.08 28.75 C207.08 40.77, 207.08 52.79, 207.08 86.25 M207.08 86.25 C207.08 105.42, 197.49 115, 178.33 115 M207.08 86.25 C207.08 105.42, 197.49 115, 178.33 115 M178.33 115 C127.27 115, 76.21 115, 28.75 115 M178.33 115 C120.09 115, 61.85 115, 28.75 115 M28.75 115 C9.58 115, 0 105.42, 0 86.25 M28.75 115 C9.58 115, 0 105.42, 0 86.25 M0 86.25 C0 64.14, 0 42.03, 0 28.75 M0 86.25 C0 64.07, 0 41.89, 0 28.75 M0 28.75 C0 9.58, 9.58 0, 28.75 0 M0 28.75 C0 9.58, 9.58 0, 28.75 0"
            stroke="#1e1e1e"
            stroke-width="1"
            fill="none"
        ></path>
    </g>
    <g
        transform="translate(468.8466658309362 104.77691714790276) rotate(0 26.767982482910156 17.5)"
    >
        <text
            x="26.767982482910156"
            y="24.668"
            font-family="Excalifont, Xiaolai, sans-serif, Segoe UI Emoji"
            font-size="28px"
            fill="#1e1e1e"
            text-anchor="middle"
            direction="ltr"
            dominant-baseline="alphabetic"
        >
            Idle
        </text>
    </g>
    <g mask="url(#mask-CVrc5wLQHs3bX172iG-gf)" stroke-linecap="round">
        <g
            transform="translate(386.57627213302476 124.14142604788184) rotate(0 -73.7728657516243 83.3773624557738)"
        >
            <path
                d="M0 0 C-22.22 7.49, -109.13 17.12, -133.3 44.91 C-157.48 72.7, -143.11 146.45, -145.07 166.75 M0 0 C-22.22 7.49, -109.13 17.12, -133.3 44.91 C-157.48 72.7, -143.11 146.45, -145.07 166.75"
                stroke="#1e1e1e"
                stroke-width="1"
                fill="none"
            ></path>
        </g>
        <g
            transform="translate(386.57627213302476 124.14142604788184) rotate(0 -73.7728657516243 83.3773624557738)"
        >
            <path
                d="M-154.52 143.61 C-152.04 149.7, -149.55 155.79, -145.07 166.75 M-154.52 143.61 C-152.15 149.42, -149.78 155.23, -145.07 166.75"
                stroke="#1e1e1e"
                stroke-width="1"
                fill="none"
            ></path>
        </g>
        <g
            transform="translate(386.57627213302476 124.14142604788184) rotate(0 -73.7728657516243 83.3773624557738)"
        >
            <path
                d="M-137.43 142.95 C-139.44 149.21, -141.45 155.48, -145.07 166.75 M-137.43 142.95 C-139.35 148.92, -141.27 154.9, -145.07 166.75"
                stroke="#1e1e1e"
                stroke-width="1"
                fill="none"
            ></path>
        </g>
    </g>
    <mask id="mask-CVrc5wLQHs3bX172iG-gf">
        <rect
            x="0"
            y="0"
            fill="#fff"
            width="631.6450106949096"
            height="390.89615095942946"
        ></rect>
        <rect
            x="171.8516979281494"
            y="144.0531884185304"
            fill="#000"
            width="162.83985900878906"
            height="50"
            opacity="1"
        ></rect>
    </mask>
    <g
        transform="translate(171.85169792814986 144.05318841853034) rotate(0 140.9517084532506 63.465600085125274)"
    >
        <text
            x="81.41992950439453"
            y="17.619999999999997"
            fill="#1e1e1e"
            text-anchor="middle"
            direction="ltr"
            dominant-baseline="alphabetic"
            class="arrow user-clicked-login-button-0"
        >
            user clicked login
        </text>
        <text
            x="81.41992950439453"
            y="42.62"
            fill="#1e1e1e"
            text-anchor="middle"
            direction="ltr"
            dominant-baseline="alphabetic"
            class="arrow user-clicked-login-button-0"
        >
            button
        </text>
    </g>
    <g mask="url(#mask-41Rm7YzU-sNw_DWX7DwIt)" stroke-linecap="round">
        <g
            transform="translate(759.9377618598155 295.3051456218476) rotate(0 -80.49951153971642 -87.88589469366215)"
        >
            <path
                d="M0 0 C-3.34 -25.96, 6.77 -126.49, -20.07 -155.79 C-46.9 -185.08, -137.51 -172.44, -161 -175.77 M0 0 C-3.34 -25.96, 6.77 -126.49, -20.07 -155.79 C-46.9 -185.08, -137.51 -172.44, -161 -175.77"
                stroke="#1e1e1e"
                stroke-width="1"
                fill="none"
            ></path>
        </g>
        <g
            transform="translate(759.9377618598155 295.3051456218476) rotate(0 -80.49951153971642 -87.88589469366215)"
        >
            <path
                d="M-137.45 -184.16 C-142.5 -182.36, -147.55 -180.56, -161 -175.77 M-137.45 -184.16 C-144.15 -181.77, -150.85 -179.39, -161 -175.77"
                stroke="#1e1e1e"
                stroke-width="1"
                fill="none"
            ></path>
        </g>
        <g
            transform="translate(759.9377618598155 295.3051456218476) rotate(0 -80.49951153971642 -87.88589469366215)"
        >
            <path
                d="M-137.57 -167.06 C-142.59 -168.93, -147.62 -170.79, -161 -175.77 M-137.57 -167.06 C-144.23 -169.54, -150.9 -172.02, -161 -175.77"
                stroke="#1e1e1e"
                stroke-width="1"
                fill="none"
            ></path>
        </g>
    </g>
    <mask id="mask-41Rm7YzU-sNw_DWX7DwIt">
        <rect
            x="0"
            y="0"
            fill="#fff"
            width="1020.9367849392484"
            height="571.0769350091718"
        ></rect>
        <rect
            x="714.2501509124104"
            y="127.01991238218727"
            fill="#000"
            width="51.239959716796875"
            height="25"
            opacity="1"
        ></rect>
    </mask>
    <g
        transform="translate(714.2501509124104 127.01991238218739) rotate(0 -34.811900592311304 80.39933854599818)"
    >
        <text
            x="25.619979858398438"
            y="17.619999999999997"
            fill="#1e1e1e"
            text-anchor="middle"
            direction="ltr"
            dominant-baseline="alphabetic"
            class="arrow reset-0"
        >
            reset
        </text>
    </g>
    <g
        stroke-linecap="round"
        transform="translate(584.4211963594616 574.3709079516631) rotate(0 136.27218319997064 57.5)"
    >
        <path
            d="M28.75 0 C81.28 0, 133.81 0, 243.79 0 C262.96 0, 272.54 9.58, 272.54 28.75 C272.54 41.32, 272.54 53.88, 272.54 86.25 C272.54 105.42, 262.96 115, 243.79 115 C197.98 115, 152.17 115, 28.75 115 C9.58 115, 0 105.42, 0 86.25 C0 73.87, 0 61.49, 0 28.75 C0 9.58, 9.58 0, 28.75 0"
            stroke="none"
            stroke-width="0"
            class="state-box auth-failed-0"
        ></path>
        <path
            d="M28.75 0 C110.84 0, 192.93 0, 243.79 0 M28.75 0 C110.36 0, 191.98 0, 243.79 0 M243.79 0 C262.96 0, 272.54 9.58, 272.54 28.75 M243.79 0 C262.96 0, 272.54 9.58, 272.54 28.75 M272.54 28.75 C272.54 50.62, 272.54 72.48, 272.54 86.25 M272.54 28.75 C272.54 47.66, 272.54 66.56, 272.54 86.25 M272.54 86.25 C272.54 105.42, 262.96 115, 243.79 115 M272.54 86.25 C272.54 105.42, 262.96 115, 243.79 115 M243.79 115 C184.34 115, 124.9 115, 28.75 115 M243.79 115 C200.22 115, 156.65 115, 28.75 115 M28.75 115 C9.58 115, 0 105.42, 0 86.25 M28.75 115 C9.58 115, 0 105.42, 0 86.25 M0 86.25 C0 70.6, 0 54.95, 0 28.75 M0 86.25 C0 68.62, 0 51, 0 28.75 M0 28.75 C0 9.58, 9.58 0, 28.75 0 M0 28.75 C0 9.58, 9.58 0, 28.75 0"
            stroke="#1e1e1e"
            stroke-width="1"
            fill="none"
        ></path>
    </g>
    <g
        transform="translate(644.7014209412682 614.3709079516631) rotate(0 75.99195861816406 17.5)"
    >
        <text
            x="75.99195861816406"
            y="24.668"
            font-family="Excalifont, Xiaolai, sans-serif, Segoe UI Emoji"
            font-size="28px"
            fill="#1e1e1e"
            text-anchor="middle"
            direction="ltr"
            dominant-baseline="alphabetic"
        >
            Auth failed
        </text>
    </g>
    <g
        stroke-linecap="round"
        transform="translate(591.5350463309196 291.66229719829846) rotate(0 136.27218319997064 57.5)"
    >
        <path
            d="M28.75 0 C95.35 0, 161.95 0, 243.79 0 C262.96 0, 272.54 9.58, 272.54 28.75 C272.54 50.35, 272.54 71.94, 272.54 86.25 C272.54 105.42, 262.96 115, 243.79 115 C186.96 115, 130.13 115, 28.75 115 C9.58 115, 0 105.42, 0 86.25 C0 71.3, 0 56.36, 0 28.75 C0 9.58, 9.58 0, 28.75 0"
            stroke="none"
            stroke-width="0"
            class="state-box facebook-is-unavailable-0"
        ></path>
        <path
            d="M28.75 0 C96.02 0, 163.3 0, 243.79 0 M28.75 0 C102.51 0, 176.27 0, 243.79 0 M243.79 0 C262.96 0, 272.54 9.58, 272.54 28.75 M243.79 0 C262.96 0, 272.54 9.58, 272.54 28.75 M272.54 28.75 C272.54 51.53, 272.54 74.31, 272.54 86.25 M272.54 28.75 C272.54 40.42, 272.54 52.08, 272.54 86.25 M272.54 86.25 C272.54 105.42, 262.96 115, 243.79 115 M272.54 86.25 C272.54 105.42, 262.96 115, 243.79 115 M243.79 115 C165.42 115, 87.04 115, 28.75 115 M243.79 115 C191.78 115, 139.77 115, 28.75 115 M28.75 115 C9.58 115, 0 105.42, 0 86.25 M28.75 115 C9.58 115, 0 105.42, 0 86.25 M0 86.25 C0 70.28, 0 54.32, 0 28.75 M0 86.25 C0 65.48, 0 44.72, 0 28.75 M0 28.75 C0 9.58, 9.58 0, 28.75 0 M0 28.75 C0 9.58, 9.58 0, 28.75 0"
            stroke="#1e1e1e"
            stroke-width="1"
            fill="none"
        ></path>
    </g>
    <g
        transform="translate(647.9652648092106 314.16229719829846) rotate(0 79.84196472167969 35)"
    >
        <text
            x="79.84196472167969"
            y="24.668"
            font-family="Excalifont, Xiaolai, sans-serif, Segoe UI Emoji"
            font-size="28px"
            fill="#1e1e1e"
            text-anchor="middle"
            direction="ltr"
            dominant-baseline="alphabetic"
        >
            Facebook is
        </text>
        <text
            x="79.84196472167969"
            y="59.668"
            font-family="Excalifont, Xiaolai, sans-serif, Segoe UI Emoji"
            font-size="28px"
            fill="#1e1e1e"
            text-anchor="middle"
            direction="ltr"
            dominant-baseline="alphabetic"
        >
            unavailable
        </text>
    </g>
    <g mask="url(#mask--FMT0ewvo9TWo6qXj5aqW)" stroke-linecap="round">
        <g
            transform="translate(856.0528692417438 628.2233713429084) rotate(0 -95.66345633147921 -276.15381454151856)"
        >
            <path
                d="M-0.73 0.59 C10.72 -10.47, 70.73 18.67, 68.04 -66.74 C65.36 -152.16, 37.25 -433.7, -16.86 -511.89 C-70.98 -590.08, -216.56 -531.65, -256.65 -535.89 M1.09 -0.14 C12.47 -11.52, 69.89 16.53, 67.32 -68.54 C64.75 -153.61, 40.12 -432.31, -14.34 -510.57 C-68.8 -588.84, -218.74 -533.68, -259.46 -538.13"
                stroke="#1e1e1e"
                stroke-width="1"
                fill="none"
            ></path>
        </g>
        <g
            transform="translate(856.0528692417438 628.2233713429084) rotate(0 -95.66345633147921 -276.15381454151856)"
        >
            <path
                d="M-237.08 -549.28 C-241.6 -545.98, -247.01 -545.15, -259.46 -538.13 M-237.08 -549.28 C-243.32 -546.51, -250.87 -542.58, -259.46 -538.13"
                stroke="#1e1e1e"
                stroke-width="1"
                fill="none"
            ></path>
        </g>
        <g
            transform="translate(856.0528692417438 628.2233713429084) rotate(0 -95.66345633147921 -276.15381454151856)"
        >
            <path
                d="M-235.15 -532.29 C-240.09 -533.16, -245.97 -536.47, -259.46 -538.13 M-235.15 -532.29 C-242.14 -534.6, -250.26 -535.75, -259.46 -538.13"
                stroke="#1e1e1e"
                stroke-width="1"
                fill="none"
            ></path>
        </g>
    </g>
    <mask id="mask--FMT0ewvo9TWo6qXj5aqW">
        <rect
            x="0"
            y="0"
            fill="#fff"
            width="1281.471896466498"
            height="1264.6933412421718"
        ></rect>
        <rect
            x="875.2519303027857"
            y="321.8296918445002"
            fill="#000"
            width="51.239959716796875"
            height="25"
            opacity="1"
        ></rect>
    </mask>
    <g
        transform="translate(875.2519303027857 321.8296918445001) rotate(0 -114.86251739252111 30.239864956889704)"
    >
        <text
            x="25.619979858398438"
            y="17.619999999999997"
            fill="#1e1e1e"
            text-anchor="middle"
            direction="ltr"
            dominant-baseline="alphabetic"
            class="arrow reset-1"
        >
            reset
        </text>
    </g>
    <g
        stroke-linecap="round"
        transform="translate(92.16603357246595 1087.5813823808942) rotate(0 136.2721831999704 57.5)"
    >
        <path
            d="M28.75 0 C90.6 0, 152.45 0, 243.79 0 C262.96 0, 272.54 9.58, 272.54 28.75 C272.54 43.32, 272.54 57.9, 272.54 86.25 C272.54 105.42, 262.96 115, 243.79 115 C196.82 115, 149.85 115, 28.75 115 C9.58 115, 0 105.42, 0 86.25 C0 68.4, 0 50.55, 0 28.75 C0 9.58, 9.58 0, 28.75 0"
            stroke="none"
            stroke-width="0"
            class="state-box got-profile-pic-0"
        ></path>
        <path
            d="M28.75 0 C88.42 0, 148.09 0, 243.79 0 M28.75 0 C111.16 0, 193.57 0, 243.79 0 M243.79 0 C262.96 0, 272.54 9.58, 272.54 28.75 M243.79 0 C262.96 0, 272.54 9.58, 272.54 28.75 M272.54 28.75 C272.54 50.38, 272.54 72.01, 272.54 86.25 M272.54 28.75 C272.54 45.57, 272.54 62.39, 272.54 86.25 M272.54 86.25 C272.54 105.42, 262.96 115, 243.79 115 M272.54 86.25 C272.54 105.42, 262.96 115, 243.79 115 M243.79 115 C187.17 115, 130.54 115, 28.75 115 M243.79 115 C170.44 115, 97.09 115, 28.75 115 M28.75 115 C9.58 115, 0 105.42, 0 86.25 M28.75 115 C9.58 115, 0 105.42, 0 86.25 M0 86.25 C0 71.97, 0 57.69, 0 28.75 M0 86.25 C0 65.42, 0 44.58, 0 28.75 M0 28.75 C0 9.58, 9.58 0, 28.75 0 M0 28.75 C0 9.58, 9.58 0, 28.75 0"
            stroke="#1e1e1e"
            stroke-width="1"
            fill="none"
        ></path>
    </g>
    <g
        transform="translate(129.45826682126471 1127.5813823808942) rotate(0 98.97994995117188 17.5)"
    >
        <text
            x="98.97994995117188"
            y="24.668"
            font-family="Excalifont, Xiaolai, sans-serif, Segoe UI Emoji"
            font-size="28px"
            fill="#1e1e1e"
            text-anchor="middle"
            direction="ltr"
            dominant-baseline="alphabetic"
        >
            Got profile pic
        </text>
    </g>
    <g mask="url(#mask-CAMqFEMojs_ISkZv6nxwO)" stroke-linecap="round">
        <g
            transform="translate(102.6660335724664 1097.2565425168889) rotate(0 101.2951318270957 -522.9110841828514)"
        >
            <path
                d="M-0.46 0.12 C-15.62 -105.55, -102.75 -464.39, -90.78 -633.6 C-78.8 -802.82, 7.05 -950.21, 71.39 -1015.15 C135.73 -1080.09, 257.82 -1021.93, 295.24 -1023.26 M1.5 -0.86 C-13.83 -106.38, -103.12 -463.33, -91.65 -632.17 C-80.18 -801.01, 5.83 -948.94, 70.32 -1013.91 C134.8 -1078.88, 257.89 -1020.55, 295.26 -1021.98"
                stroke="#1e1e1e"
                stroke-width="1"
                fill="none"
            ></path>
        </g>
        <g
            transform="translate(102.6660335724664 1097.2565425168889) rotate(0 101.2951318270957 -522.9110841828514)"
        >
            <path
                d="M270.59 -1017.9 C278.65 -1018.88, 285.99 -1021.39, 295.26 -1021.98 M270.59 -1017.9 C277.9 -1018.76, 284.34 -1020.68, 295.26 -1021.98"
                stroke="#1e1e1e"
                stroke-width="1"
                fill="none"
            ></path>
        </g>
        <g
            transform="translate(102.6660335724664 1097.2565425168889) rotate(0 101.2951318270957 -522.9110841828514)"
        >
            <path
                d="M273.74 -1034.71 C280.85 -1030.34, 287.18 -1027.49, 295.26 -1021.98 M273.74 -1034.71 C280.08 -1030.71, 285.61 -1027.79, 295.26 -1021.98"
                stroke="#1e1e1e"
                stroke-width="1"
                fill="none"
            ></path>
        </g>
    </g>
    <mask id="mask-CAMqFEMojs_ISkZv6nxwO">
        <rect
            x="0"
            y="0"
            fill="#fff"
            width="589.2565487091852"
            height="2220.8375489524906"
        ></rect>
        <rect
            x="28.716901770892946"
            y="222.1406526153387"
            fill="#000"
            width="66.69996643066406"
            height="75"
            opacity="1"
        ></rect>
    </mask>
    <g
        transform="translate(28.716901770892946 222.14065261533875) rotate(0 175.24426362866916 352.2048057186987)"
    >
        <text
            x="33.34998321533203"
            y="17.619999999999997"
            fill="#1e1e1e"
            text-anchor="middle"
            direction="ltr"
            dominant-baseline="alphabetic"
            class="arrow logout-button-clicked-0"
        >
            logout
        </text>
        <text
            x="33.34998321533203"
            y="42.62"
            fill="#1e1e1e"
            text-anchor="middle"
            direction="ltr"
            dominant-baseline="alphabetic"
            class="arrow logout-button-clicked-0"
        >
            button
        </text>
        <text
            x="33.34998321533203"
            y="67.62"
            fill="#1e1e1e"
            text-anchor="middle"
            direction="ltr"
            dominant-baseline="alphabetic"
            class="arrow logout-button-clicked-0"
        >
            clicked
        </text>
    </g>
    <g mask="url(#mask-89CghjQu3hIxbXLPcZPfR)" stroke-linecap="round">
        <g
            transform="translate(233.95940587460927 959.2512719476931) rotate(0 -0.18793714904882108 63.163281006117586)"
        >
            <path
                d="M0 0 C-0.06 21.05, -0.31 105.27, -0.38 126.33 M0 0 C-0.06 21.05, -0.31 105.27, -0.38 126.33"
                stroke="#1e1e1e"
                stroke-width="1"
                fill="none"
            ></path>
        </g>
        <g
            transform="translate(233.95940587460927 959.2512719476931) rotate(0 -0.18793714904882108 63.163281006117586)"
        >
            <path
                d="M-8.86 102.81 C-6.1 110.44, -3.35 118.07, -0.38 126.33 M-8.86 102.81 C-6.23 110.09, -3.61 117.36, -0.38 126.33"
                stroke="#1e1e1e"
                stroke-width="1"
                fill="none"
            ></path>
        </g>
        <g
            transform="translate(233.95940587460927 959.2512719476931) rotate(0 -0.18793714904882108 63.163281006117586)"
        >
            <path
                d="M8.24 102.86 C5.45 110.47, 2.65 118.09, -0.38 126.33 M8.24 102.86 C5.58 110.12, 2.91 117.38, -0.38 126.33"
                stroke="#1e1e1e"
                stroke-width="1"
                fill="none"
            ></path>
        </g>
    </g>
    <mask id="mask-89CghjQu3hIxbXLPcZPfR">
        <rect
            x="0"
            y="0"
            fill="#fff"
            width="334.3352801727069"
            height="1185.5778339599283"
        ></rect>
        <rect
            x="186.40151175534538"
            y="997.4145529538107"
            fill="#000"
            width="94.73991394042969"
            height="50"
            opacity="1"
        ></rect>
    </mask>
    <g
        transform="translate(186.40151175534538 997.4145529538108) rotate(0 47.36995697021507 25)"
    >
        <text
            x="47.369956970214844"
            y="17.619999999999997"
            fill="#1e1e1e"
            text-anchor="middle"
            direction="ltr"
            dominant-baseline="alphabetic"
            class="arrow download-profile-pic-0"
        >
            download
        </text>
        <text
            x="47.369956970214844"
            y="42.62"
            fill="#1e1e1e"
            text-anchor="middle"
            direction="ltr"
            dominant-baseline="alphabetic"
            class="arrow download-profile-pic-0"
        >
            profile pic
        </text>
    </g>
    <g
        stroke-linecap="round"
        transform="translate(581.8991166616588 846.5146150062194) rotate(0 136.27218319997064 57.5)"
    >
        <path
            d="M28.75 0 C104.32 0, 179.89 0, 243.79 0 C262.96 0, 272.54 9.58, 272.54 28.75 C272.54 46.37, 272.54 63.99, 272.54 86.25 C272.54 105.42, 262.96 115, 243.79 115 C162.94 115, 82.08 115, 28.75 115 C9.58 115, 0 105.42, 0 86.25 C0 66.7, 0 47.16, 0 28.75 C0 9.58, 9.58 0, 28.75 0"
            stroke="none"
            stroke-width="0"
            class="state-box failed-to-get-profile-pic-0"
        ></path>
        <path
            d="M28.75 0 C73.1 0, 117.45 0, 243.79 0 M28.75 0 C99.62 0, 170.49 0, 243.79 0 M243.79 0 C262.96 0, 272.54 9.58, 272.54 28.75 M243.79 0 C262.96 0, 272.54 9.58, 272.54 28.75 M272.54 28.75 C272.54 42.68, 272.54 56.61, 272.54 86.25 M272.54 28.75 C272.54 43.34, 272.54 57.94, 272.54 86.25 M272.54 86.25 C272.54 105.42, 262.96 115, 243.79 115 M272.54 86.25 C272.54 105.42, 262.96 115, 243.79 115 M243.79 115 C185.22 115, 126.65 115, 28.75 115 M243.79 115 C164.9 115, 86 115, 28.75 115 M28.75 115 C9.58 115, 0 105.42, 0 86.25 M28.75 115 C9.58 115, 0 105.42, 0 86.25 M0 86.25 C0 65.93, 0 45.61, 0 28.75 M0 86.25 C0 69.08, 0 51.91, 0 28.75 M0 28.75 C0 9.58, 9.58 0, 28.75 0 M0 28.75 C0 9.58, 9.58 0, 28.75 0"
            stroke="#1e1e1e"
            stroke-width="1"
            fill="none"
        ></path>
    </g>
    <g
        transform="translate(628.6273469197349 869.0146150062194) rotate(0 89.54395294189453 35)"
    >
        <text
            x="89.54395294189453"
            y="24.668"
            font-family="Excalifont, Xiaolai, sans-serif, Segoe UI Emoji"
            font-size="28px"
            fill="#1e1e1e"
            text-anchor="middle"
            direction="ltr"
            dominant-baseline="alphabetic"
        >
            Failed to get
        </text>
        <text
            x="89.54395294189453"
            y="59.668"
            font-family="Excalifont, Xiaolai, sans-serif, Segoe UI Emoji"
            font-size="28px"
            fill="#1e1e1e"
            text-anchor="middle"
            direction="ltr"
            dominant-baseline="alphabetic"
        >
            profile pic
        </text>
    </g>
    <g mask="url(#mask-EhCcCHvbikXqp-VZS2u3E)" stroke-linecap="round">
        <g
            transform="translate(360.70839205649645 904.1565608364456) rotate(0 112.39647103755487 1.26023120129895)"
        >
            <path
                d="M0 0 C18.32 0.86, 72.47 5.62, 109.94 5.17 C147.4 4.73, 205.65 -1.37, 224.79 -2.68 M0 0 C18.32 0.86, 72.47 5.62, 109.94 5.17 C147.4 4.73, 205.65 -1.37, 224.79 -2.68"
                stroke="#1e1e1e"
                stroke-width="1"
                fill="none"
            ></path>
        </g>
        <g
            transform="translate(360.70839205649645 904.1565608364456) rotate(0 112.39647103755487 1.26023120129895)"
        >
            <path
                d="M202.1 7.8 C209.93 4.18, 217.77 0.56, 224.79 -2.68 M202.1 7.8 C209.83 4.23, 217.56 0.66, 224.79 -2.68"
                stroke="#1e1e1e"
                stroke-width="1"
                fill="none"
            ></path>
        </g>
        <g
            transform="translate(360.70839205649645 904.1565608364456) rotate(0 112.39647103755487 1.26023120129895)"
        >
            <path
                d="M200.67 -9.25 C209 -6.98, 217.33 -4.71, 224.79 -2.68 M200.67 -9.25 C208.89 -7.01, 217.1 -4.78, 224.79 -2.68"
                stroke="#1e1e1e"
                stroke-width="1"
                fill="none"
            ></path>
        </g>
    </g>
    <mask id="mask-EhCcCHvbikXqp-VZS2u3E">
        <rect
            x="0"
            y="0"
            fill="#fff"
            width="685.5013341316062"
            height="1012.0151475680965"
        ></rect>
        <rect
            x="444.57387111969"
            y="871.8312925287378"
            fill="#000"
            width="52.13995361328125"
            height="75"
            opacity="1"
        ></rect>
    </mask>
    <g
        transform="translate(444.57387111969 871.8312925287379) rotate(0 28.530991974361314 33.58549950900664)"
    >
        <text
            x="26.069976806640625"
            y="17.619999999999997"
            fill="#1e1e1e"
            text-anchor="middle"
            direction="ltr"
            dominant-baseline="alphabetic"
            class="arrow graph-api-fail-0"
        >
            graph
        </text>
        <text
            x="26.069976806640625"
            y="42.62"
            fill="#1e1e1e"
            text-anchor="middle"
            direction="ltr"
            dominant-baseline="alphabetic"
            class="arrow graph-api-fail-0"
        >
            API
        </text>
        <text
            x="26.069976806640625"
            y="67.62"
            fill="#1e1e1e"
            text-anchor="middle"
            direction="ltr"
            dominant-baseline="alphabetic"
            class="arrow graph-api-fail-0"
        >
            fail
        </text>
    </g>
    <g mask="url(#mask-kuhBawxL5nsHRanrSuzD5)" stroke-linecap="round">
        <g
            transform="translate(851.9434830616001 908.884591513225) rotate(0 -48.98828856033515 -449.34506537528006)"
        >
            <path
                d="M0.49 0.19 C27.37 -25.25, 159.99 -10.21, 161.29 -152.05 C162.58 -293.89, 78.35 -737.39, 8.25 -850.82 C-61.84 -964.26, -214.61 -835.89, -259.28 -832.66 M-0.72 -0.75 C26.04 -26.56, 159.13 -11.65, 160.56 -153.66 C161.99 -295.67, 77.81 -739.75, 7.88 -852.81 C-62.06 -965.88, -214.76 -835.71, -259.05 -832.07"
                stroke="#1e1e1e"
                stroke-width="1"
                fill="none"
            ></path>
        </g>
        <g
            transform="translate(851.9434830616001 908.884591513225) rotate(0 -48.98828856033515 -449.34506537528006)"
        >
            <path
                d="M-240.84 -849.19 C-245.89 -843.29, -250.06 -837.59, -259.05 -832.07 M-240.84 -849.19 C-247.76 -843.06, -253.25 -837.53, -259.05 -832.07"
                stroke="#1e1e1e"
                stroke-width="1"
                fill="none"
            ></path>
        </g>
        <g
            transform="translate(851.9434830616001 908.884591513225) rotate(0 -48.98828856033515 -449.34506537528006)"
        >
            <path
                d="M-234.09 -833.48 C-241.25 -832.26, -247.44 -831.28, -259.05 -832.07 M-234.09 -833.48 C-243.41 -832.98, -251.29 -833.05, -259.05 -832.07"
                stroke="#1e1e1e"
                stroke-width="1"
                fill="none"
            ></path>
        </g>
    </g>
    <mask id="mask-kuhBawxL5nsHRanrSuzD5">
        <rect
            x="0"
            y="0"
            fill="#fff"
            width="1372.0578280671798"
            height="1860.3726046073812"
        ></rect>
        <rect
            x="938.1480348467057"
            y="387.7193978087306"
            fill="#000"
            width="51.239959716796875"
            height="25"
            opacity="1"
        ></rect>
    </mask>
    <g
        transform="translate(938.1480348467057 387.7193978087305) rotate(0 -135.1928403454408 71.82012832921441)"
    >
        <text
            x="25.619979858398438"
            y="17.619999999999997"
            fill="#1e1e1e"
            text-anchor="middle"
            direction="ltr"
            dominant-baseline="alphabetic"
            class="arrow reset-2"
        >
            reset
        </text>
    </g>
    <g
        stroke-linecap="round"
        transform="translate(99.81810802822474 577.7146526445657) rotate(0 134.48668589264958 57.50000000000003)"
    >
        <path
            d="M28.75 0 C104.57 0, 180.4 0, 240.22 0 C259.39 0, 268.97 9.58, 268.97 28.75 C268.97 49.68, 268.97 70.62, 268.97 86.25 C268.97 105.42, 259.39 115, 240.22 115 C162.63 115, 85.03 115, 28.75 115 C9.58 115, 0 105.42, 0 86.25 C0 70.25, 0 54.25, 0 28.75 C0 9.58, 9.58 0, 28.75 0"
            stroke="none"
            stroke-width="0"
            class="state-box checking-redirect-result-0"
        ></path>
        <path
            d="M28.75 0 C97.16 0, 165.56 0, 240.22 0 M28.75 0 C82.08 0, 135.42 0, 240.22 0 M240.22 0 C259.39 0, 268.97 9.58, 268.97 28.75 M240.22 0 C259.39 0, 268.97 9.58, 268.97 28.75 M268.97 28.75 C268.97 48.22, 268.97 67.68, 268.97 86.25 M268.97 28.75 C268.97 46.94, 268.97 65.12, 268.97 86.25 M268.97 86.25 C268.97 105.42, 259.39 115, 240.22 115 M268.97 86.25 C268.97 105.42, 259.39 115, 240.22 115 M240.22 115 C197.4 115, 154.58 115, 28.75 115 M240.22 115 C166.85 115, 93.48 115, 28.75 115 M28.75 115 C9.58 115, 0 105.42, 0 86.25 M28.75 115 C9.58 115, 0 105.42, 0 86.25 M0 86.25 C0 67.17, 0 48.08, 0 28.75 M0 86.25 C0 73.82, 0 61.39, 0 28.75 M0 28.75 C0 9.58, 9.58 0, 28.75 0 M0 28.75 C0 9.58, 9.58 0, 28.75 0"
            stroke="#1e1e1e"
            stroke-width="1"
            fill="none"
        ></path>
    </g>
    <g
        transform="translate(118.67884024655814 600.2146526445657) rotate(0 115.6259536743164 35.00000000000003)"
    >
        <text
            x="115.6259536743164"
            y="24.668"
            font-family="Excalifont, Xiaolai, sans-serif, Segoe UI Emoji"
            font-size="28px"
            fill="#1e1e1e"
            text-anchor="middle"
            direction="ltr"
            dominant-baseline="alphabetic"
        >
            Checking redirect
        </text>
        <text
            x="115.6259536743164"
            y="59.668"
            font-family="Excalifont, Xiaolai, sans-serif, Segoe UI Emoji"
            font-size="28px"
            fill="#1e1e1e"
            text-anchor="middle"
            direction="ltr"
            dominant-baseline="alphabetic"
        >
            result
        </text>
    </g>
    <g mask="url(#mask-w1CRAUmJBAGQwUlGqFZ85)" stroke-linecap="round">
        <g
            transform="translate(367.4123962820663 641.2246900614284) rotate(0 109.75444072880168 -6.258294841178838)"
        >
            <path
                d="M0 0 C14.9 -0.12, 52.82 1.47, 89.4 -0.69 C125.99 -2.85, 197.82 -10.92, 219.51 -12.97 M0 0 C14.9 -0.12, 52.82 1.47, 89.4 -0.69 C125.99 -2.85, 197.82 -10.92, 219.51 -12.97"
                stroke="#1e1e1e"
                stroke-width="1"
                fill="none"
            ></path>
        </g>
        <g
            transform="translate(367.4123962820663 641.2246900614284) rotate(0 109.75444072880168 -6.258294841178838)"
        >
            <path
                d="M197.01 -2.07 C204.63 -5.76, 212.25 -9.45, 219.51 -12.97 M197.01 -2.07 C205.4 -6.14, 213.79 -10.2, 219.51 -12.97"
                stroke="#1e1e1e"
                stroke-width="1"
                fill="none"
            ></path>
        </g>
        <g
            transform="translate(367.4123962820663 641.2246900614284) rotate(0 109.75444072880168 -6.258294841178838)"
        >
            <path
                d="M195.27 -19.08 C203.48 -17.01, 211.68 -14.94, 219.51 -12.97 M195.27 -19.08 C204.31 -16.8, 213.34 -14.52, 219.51 -12.97"
                stroke="#1e1e1e"
                stroke-width="1"
                fill="none"
            ></path>
        </g>
    </g>
    <mask id="mask-w1CRAUmJBAGQwUlGqFZ85">
        <rect
            x="0"
            y="0"
            fill="#fff"
            width="686.9212777396697"
            height="754.1941202752287"
        ></rect>
        <rect
            x="441.39491025736925"
            y="628.0327632250746"
            fill="#000"
            width="30.8399658203125"
            height="25"
            opacity="1"
        ></rect>
    </mask>
    <g
        transform="translate(441.3949102573688 628.0327632250746) rotate(0 35.7719267534992 6.933631995174835)"
    >
        <text
            x="15.41998291015625"
            y="17.619999999999997"
            fill="#1e1e1e"
            text-anchor="middle"
            direction="ltr"
            dominant-baseline="alphabetic"
            class="arrow fail-0"
        >
            fail
        </text>
    </g>
    <g mask="url(#mask-dBRB1qP6bkcvI_AYK9K7M)" stroke-linecap="round">
        <g
            transform="translate(229.22207135366943 691.547253199071) rotate(0 0.47882107035252375 77.82995275904722)"
        >
            <path
                d="M0 0 C0.16 25.94, 0.8 129.72, 0.96 155.66 M0 0 C0.16 25.94, 0.8 129.72, 0.96 155.66"
                stroke="#1e1e1e"
                stroke-width="1"
                fill="none"
            ></path>
        </g>
        <g
            transform="translate(229.22207135366943 691.547253199071) rotate(0 0.47882107035252375 77.82995275904722)"
        >
            <path
                d="M-7.74 132.22 C-5.69 137.74, -3.64 143.26, 0.96 155.66 M-7.74 132.22 C-5.57 138.06, -3.41 143.9, 0.96 155.66"
                stroke="#1e1e1e"
                stroke-width="1"
                fill="none"
            ></path>
        </g>
        <g
            transform="translate(229.22207135366943 691.547253199071) rotate(0 0.47882107035252375 77.82995275904722)"
        >
            <path
                d="M9.36 132.12 C7.38 137.66, 5.41 143.2, 0.96 155.66 M9.36 132.12 C7.27 137.98, 5.18 143.85, 0.96 155.66"
                stroke="#1e1e1e"
                stroke-width="1"
                fill="none"
            ></path>
        </g>
    </g>
    <mask id="mask-dBRB1qP6bkcvI_AYK9K7M">
        <rect
            x="0"
            y="0"
            fill="#fff"
            width="330.1797134943745"
            height="947.2071587171654"
        ></rect>
        <rect
            x="172.22093484345532"
            y="756.877205958118"
            fill="#000"
            width="114.95991516113281"
            height="25"
            opacity="1"
        ></rect>
    </mask>
    <g
        transform="translate(172.22093484345532 756.877205958118) rotate(0 57.479957580566634 12.500000000000057)"
    >
        <text
            x="57.479957580566406"
            y="17.619999999999997"
            fill="#1e1e1e"
            text-anchor="middle"
            direction="ltr"
            dominant-baseline="alphabetic"
            class="arrow ok-response-0"
        >
            ok response
        </text>
    </g>
    <g mask="url(#mask-jm0kSXVwu55RGgZln4tG7)" stroke-linecap="round">
        <g
            transform="translate(237.04593643201179 408.8961204418513) rotate(0 -3.5887589448534527 86.59196687791436)"
        >
            <path
                d="M0.49 -0.83 C-0.93 28.34, -6.66 145.03, -7.67 174.01 M-0.71 1.35 C-1.84 30.3, -4.61 143.58, -5.45 172.43"
                stroke="#1e1e1e"
                stroke-width="1"
                fill="none"
            ></path>
        </g>
        <g
            transform="translate(237.04593643201179 408.8961204418513) rotate(0 -3.5887589448534527 86.59196687791436)"
        >
            <path
                d="M-13.37 148.71 C-11.97 156.03, -5.92 168.39, -5.45 172.43 M-13.37 148.71 C-10.79 155.11, -8.88 162.67, -5.45 172.43"
                stroke="#1e1e1e"
                stroke-width="1"
                fill="none"
            ></path>
        </g>
        <g
            transform="translate(237.04593643201179 408.8961204418513) rotate(0 -3.5887589448534527 86.59196687791436)"
        >
            <path
                d="M3.73 149.17 C-1.29 156.38, -1.65 168.58, -5.45 172.43 M3.73 149.17 C1.05 155.55, -2.3 162.97, -5.45 172.43"
                stroke="#1e1e1e"
                stroke-width="1"
                fill="none"
            ></path>
        </g>
    </g>
    <mask id="mask-jm0kSXVwu55RGgZln4tG7">
        <rect
            x="0"
            y="0"
            fill="#fff"
            width="343.7872213585142"
            height="681.8814210364928"
        ></rect>
        <rect
            x="163.1553583608502"
            y="482.88877073917206"
            fill="#000"
            width="141.0398712158203"
            height="25"
            opacity="1"
        ></rect>
    </mask>
    <g
        transform="translate(163.1553583608502 482.888770739172) rotate(0 70.30181912630815 12.59931658059358)"
    >
        <text
            x="70.51993560791016"
            y="17.619999999999997"
            fill="#1e1e1e"
            text-anchor="middle"
            direction="ltr"
            dominant-baseline="alphabetic"
            class="arrow and-were-back-0"
        >
            and we're back
        </text>
    </g>
</svg>
