<svg
    version="1.1"
    xmlns="http://www.w3.org/2000/svg"
    viewBox="0 0 873.7315768357525 739.4106037614127"
    width="873.7315768357525"
    height="739.4106037614127"
>
    <!-- svg-source:excalidraw -->
    <metadata></metadata>
    <defs>
        <style>
            .state-box {
                fill: none;
            }
            .state-box.failure {
                fill: red;
            }
            .state-box.success {
                fill: green;
            }

            text.arrow {
                fill: black;
                font-size: 20px;
            }
            text.arrow.failure {
                fill: red;
            }
            text.arrow.success {
                fill: green;
            }

            path.arrow {
                stroke: black;
            }
            path.arrow.failure {
                stroke: red;
            }
            path.arrow.success {
                stroke: green;
            }
            * {
                font-family: Arial;
            }
        </style>
    </defs>
    <g
        stroke-linecap="round"
        transform="translate(15.105236763875837 377.4866587974581) rotate(0 134.48668589264958 57.5)"
    >
        <path
            d="M28.75 0 C98.32 0, 167.89 0, 240.22 0 C259.39 0, 268.97 9.58, 268.97 28.75 C268.97 51.54, 268.97 74.33, 268.97 86.25 C268.97 105.42, 259.39 115, 240.22 115 C186.88 115, 133.54 115, 28.75 115 C9.58 115, 0 105.42, 0 86.25 C0 68, 0 49.74, 0 28.75 C0 9.58, 9.58 0, 28.75 0"
            stroke="none"
            stroke-width="0"
            class="state-box redirecting-to-facebook-0"
        ></path>
        <path
            d="M28.75 0 C76.49 0, 124.22 0, 240.22 0 M28.75 0 C112.7 0, 196.65 0, 240.22 0 M240.22 0 C259.39 0, 268.97 9.58, 268.97 28.75 M240.22 0 C259.39 0, 268.97 9.58, 268.97 28.75 M268.97 28.75 C268.97 43.14, 268.97 57.52, 268.97 86.25 M268.97 28.75 C268.97 49.47, 268.97 70.19, 268.97 86.25 M268.97 86.25 C268.97 105.42, 259.39 115, 240.22 115 M268.97 86.25 C268.97 105.42, 259.39 115, 240.22 115 M240.22 115 C181.82 115, 123.42 115, 28.75 115 M240.22 115 C178.36 115, 116.5 115, 28.75 115 M28.75 115 C9.58 115, 0 105.42, 0 86.25 M28.75 115 C9.58 115, 0 105.42, 0 86.25 M0 86.25 C0 66.91, 0 47.57, 0 28.75 M0 86.25 C0 64.29, 0 42.33, 0 28.75 M0 28.75 C0 9.58, 9.58 0, 28.75 0 M0 28.75 C0 9.58, 9.58 0, 28.75 0"
            stroke="#1e1e1e"
            stroke-width="1"
            fill="none"
        ></path>
    </g>
    <g
        transform="translate(51.78797520779517 399.9866587974581) rotate(0 97.80394744873047 35)"
    >
        <text
            x="97.80394744873047"
            y="24.668"
            font-family="Excalifont, Xiaolai, sans-serif, Segoe UI Emoji"
            font-size="28px"
            fill="#1e1e1e"
            text-anchor="middle"
            direction="ltr"
            dominant-baseline="alphabetic"
        >
            Redirecting to
        </text>
        <text
            x="97.80394744873047"
            y="59.668"
            font-family="Excalifont, Xiaolai, sans-serif, Segoe UI Emoji"
            font-size="28px"
            fill="#1e1e1e"
            text-anchor="middle"
            direction="ltr"
            dominant-baseline="alphabetic"
        >
            facebook
        </text>
    </g>
    <g
        stroke-linecap="round"
        transform="translate(10 614.4106037614127) rotate(0 136.2721831999704 57.5)"
    >
        <path
            d="M28.75 0 C110.72 0, 192.68 0, 243.79 0 C262.96 0, 272.54 9.58, 272.54 28.75 C272.54 47.48, 272.54 66.22, 272.54 86.25 C272.54 105.42, 262.96 115, 243.79 115 C171.18 115, 98.57 115, 28.75 115 C9.58 115, 0 105.42, 0 86.25 C0 68.92, 0 51.6, 0 28.75 C0 9.58, 9.58 0, 28.75 0"
            stroke="none"
            stroke-width="0"
            class="state-box signed-in-0"
        ></path>
        <path
            d="M28.75 0 C110.8 0, 192.84 0, 243.79 0 M28.75 0 C86.56 0, 144.38 0, 243.79 0 M243.79 0 C262.96 0, 272.54 9.58, 272.54 28.75 M243.79 0 C262.96 0, 272.54 9.58, 272.54 28.75 M272.54 28.75 C272.54 42.46, 272.54 56.17, 272.54 86.25 M272.54 28.75 C272.54 46.21, 272.54 63.68, 272.54 86.25 M272.54 86.25 C272.54 105.42, 262.96 115, 243.79 115 M272.54 86.25 C272.54 105.42, 262.96 115, 243.79 115 M243.79 115 C174.09 115, 104.39 115, 28.75 115 M243.79 115 C166.88 115, 89.97 115, 28.75 115 M28.75 115 C9.58 115, 0 105.42, 0 86.25 M28.75 115 C9.58 115, 0 105.42, 0 86.25 M0 86.25 C0 74.09, 0 61.94, 0 28.75 M0 86.25 C0 71.33, 0 56.41, 0 28.75 M0 28.75 C0 9.58, 9.58 0, 28.75 0 M0 28.75 C0 9.58, 9.58 0, 28.75 0"
            stroke="#1e1e1e"
            stroke-width="1"
            fill="none"
        ></path>
    </g>
    <g
        transform="translate(86.49221493825189 654.4106037614127) rotate(0 59.77996826171875 17.5)"
    >
        <text
            x="59.77996826171875"
            y="24.668"
            font-family="Excalifont, Xiaolai, sans-serif, Segoe UI Emoji"
            font-size="28px"
            fill="#1e1e1e"
            text-anchor="middle"
            direction="ltr"
            dominant-baseline="alphabetic"
        >
            Signed-in
        </text>
    </g>
    <g mask="url(#mask-dBRB1qP6bkcvI_AYK9K7M)" stroke-linecap="round">
        <g
            transform="translate(149.8645118806371 489.9711604918522) rotate(0 -0.18793714904882108 63.163281006117586)"
        >
            <path
                d="M0 0 C-0.06 21.05, -0.31 105.27, -0.38 126.33 M0 0 C-0.06 21.05, -0.31 105.27, -0.38 126.33"
                stroke="#1e1e1e"
                stroke-width="1"
                fill="none"
            ></path>
        </g>
        <g
            transform="translate(149.8645118806371 489.9711604918522) rotate(0 -0.18793714904882108 63.163281006117586)"
        >
            <path
                d="M-8.86 102.81 C-6.86 108.35, -4.86 113.88, -0.38 126.33 M-8.86 102.81 C-6.74 108.67, -4.63 114.53, -0.38 126.33"
                stroke="#1e1e1e"
                stroke-width="1"
                fill="none"
            ></path>
        </g>
        <g
            transform="translate(149.8645118806371 489.9711604918522) rotate(0 -0.18793714904882108 63.163281006117586)"
        >
            <path
                d="M8.24 102.86 C6.21 108.38, 4.19 113.91, -0.38 126.33 M8.24 102.86 C6.1 108.71, 3.95 114.55, -0.38 126.33"
                stroke="#1e1e1e"
                stroke-width="1"
                fill="none"
            ></path>
        </g>
    </g>
    <mask id="mask-dBRB1qP6bkcvI_AYK9K7M">
        <rect
            x="0"
            y="0"
            fill="#fff"
            width="250.24038617873475"
            height="716.2977225040873"
        ></rect>
        <rect
            x="92.19661715102211"
            y="540.6344414979698"
            fill="#000"
            width="114.95991516113281"
            height="25"
            opacity="1"
        ></rect>
    </mask>
    <g
        transform="translate(92.19661715102211 540.6344414979699) rotate(0 57.47995758056618 12.5)"
    >
        <text
            x="57.479957580566406"
            y="17.619999999999997"
            fill="#1e1e1e"
            text-anchor="middle"
            direction="ltr"
            dominant-baseline="alphabetic"
            class="arrow ok-response-0"
        >
            ok response
        </text>
    </g>
    <g mask="url(#mask-M0EonnSy34e1POpJgDUsM)" stroke-linecap="round">
        <g
            transform="translate(275.86427051904093 383.721776044679) rotate(0 118.25698554866358 -19.53323558299583)"
        >
            <path
                d="M0 0 C18.48 -6.44, 71.46 -35.31, 110.88 -38.67 C150.3 -42.03, 215.57 -23.24, 236.51 -20.16 M0 0 C18.48 -6.44, 71.46 -35.31, 110.88 -38.67 C150.3 -42.03, 215.57 -23.24, 236.51 -20.16"
                stroke="#1e1e1e"
                stroke-width="1"
                fill="none"
            ></path>
        </g>
        <g
            transform="translate(275.86427051904093 383.721776044679) rotate(0 118.25698554866358 -19.53323558299583)"
        >
            <path
                d="M211.78 -16.55 C219.74 -17.71, 227.7 -18.87, 236.51 -20.16 M211.78 -16.55 C219.79 -17.72, 227.8 -18.89, 236.51 -20.16"
                stroke="#1e1e1e"
                stroke-width="1"
                fill="none"
            ></path>
        </g>
        <g
            transform="translate(275.86427051904093 383.721776044679) rotate(0 118.25698554866358 -19.53323558299583)"
        >
            <path
                d="M215.25 -33.3 C222.09 -29.07, 228.94 -24.84, 236.51 -20.16 M215.25 -33.3 C222.13 -29.04, 229.02 -24.79, 236.51 -20.16"
                stroke="#1e1e1e"
                stroke-width="1"
                fill="none"
            ></path>
        </g>
    </g>
    <mask id="mask-M0EonnSy34e1POpJgDUsM">
        <rect
            x="0"
            y="0"
            fill="#fff"
            width="612.3782416163681"
            height="522.3874573413318"
        ></rect>
        <rect
            x="345.64357337993897"
            y="307.5560947480262"
            fill="#000"
            width="82.19993591308594"
            height="75"
            opacity="1"
        ></rect>
    </mask>
    <g
        transform="translate(345.6435733799399 307.55609474802617) rotate(0 48.47768268776508 56.63244571365702)"
    >
        <text
            x="41.09996795654297"
            y="17.619999999999997"
            fill="#1e1e1e"
            text-anchor="middle"
            direction="ltr"
            dominant-baseline="alphabetic"
            class="arrow firebase-returned-an-error-0"
        >
            firebase
        </text>
        <text
            x="41.09996795654297"
            y="42.62"
            fill="#1e1e1e"
            text-anchor="middle"
            direction="ltr"
            dominant-baseline="alphabetic"
            class="arrow firebase-returned-an-error-0"
        >
            returned
        </text>
        <text
            x="41.09996795654297"
            y="67.62"
            fill="#1e1e1e"
            text-anchor="middle"
            direction="ltr"
            dominant-baseline="alphabetic"
            class="arrow firebase-returned-an-error-0"
        >
            an error
        </text>
    </g>
    <g
        stroke-linecap="round"
        transform="translate(310.05198495816876 80.53414760149138) rotate(0 103.53837618082139 57.5)"
    >
        <path
            d="M28.75 0 C62.98 0, 97.2 0, 178.33 0 C197.49 0, 207.08 9.58, 207.08 28.75 C207.08 49.81, 207.08 70.87, 207.08 86.25 C207.08 105.42, 197.49 115, 178.33 115 C140.02 115, 101.72 115, 28.75 115 C9.58 115, 0 105.42, 0 86.25 C0 65.99, 0 45.72, 0 28.75 C0 9.58, 9.58 0, 28.75 0"
            stroke="none"
            stroke-width="0"
            class="state-box idle-0"
        ></path>
        <path
            d="M28.75 0 C69.41 0, 110.06 0, 178.33 0 M28.75 0 C62.83 0, 96.91 0, 178.33 0 M178.33 0 C197.49 0, 207.08 9.58, 207.08 28.75 M178.33 0 C197.49 0, 207.08 9.58, 207.08 28.75 M207.08 28.75 C207.08 51.32, 207.08 73.89, 207.08 86.25 M207.08 28.75 C207.08 40.77, 207.08 52.79, 207.08 86.25 M207.08 86.25 C207.08 105.42, 197.49 115, 178.33 115 M207.08 86.25 C207.08 105.42, 197.49 115, 178.33 115 M178.33 115 C127.27 115, 76.21 115, 28.75 115 M178.33 115 C120.09 115, 61.85 115, 28.75 115 M28.75 115 C9.58 115, 0 105.42, 0 86.25 M28.75 115 C9.58 115, 0 105.42, 0 86.25 M0 86.25 C0 64.14, 0 42.03, 0 28.75 M0 86.25 C0 64.07, 0 41.89, 0 28.75 M0 28.75 C0 9.58, 9.58 0, 28.75 0 M0 28.75 C0 9.58, 9.58 0, 28.75 0"
            stroke="#1e1e1e"
            stroke-width="1"
            fill="none"
        ></path>
    </g>
    <g
        transform="translate(386.8223786560807 120.53414760149138) rotate(0 26.767982482910156 17.5)"
    >
        <text
            x="26.767982482910156"
            y="24.668"
            font-family="Excalifont, Xiaolai, sans-serif, Segoe UI Emoji"
            font-size="28px"
            fill="#1e1e1e"
            text-anchor="middle"
            direction="ltr"
            dominant-baseline="alphabetic"
        >
            Idle
        </text>
    </g>
    <g mask="url(#mask-CVrc5wLQHs3bX172iG-gf)" stroke-linecap="round">
        <g
            transform="translate(304.5519849581683 139.89865650147055) rotate(0 -77.15788624262836 116.04400114799378)"
        >
            <path
                d="M0 0 C-22.22 7.49, -107.59 6.23, -133.3 44.91 C-159.02 83.59, -150.81 200.89, -154.32 232.09 M0 0 C-22.22 7.49, -107.59 6.23, -133.3 44.91 C-159.02 83.59, -150.81 200.89, -154.32 232.09"
                stroke="#1e1e1e"
                stroke-width="1"
                fill="none"
            ></path>
        </g>
        <g
            transform="translate(304.5519849581683 139.89865650147055) rotate(0 -77.15788624262836 116.04400114799378)"
        >
            <path
                d="M-162.25 208.38 C-160.16 214.62, -158.08 220.86, -154.32 232.09 M-162.25 208.38 C-160.26 214.33, -158.27 220.28, -154.32 232.09"
                stroke="#1e1e1e"
                stroke-width="1"
                fill="none"
            ></path>
        </g>
        <g
            transform="translate(304.5519849581683 139.89865650147055) rotate(0 -77.15788624262836 116.04400114799378)"
        >
            <path
                d="M-145.16 208.83 C-147.57 214.95, -149.98 221.07, -154.32 232.09 M-145.16 208.83 C-147.46 214.66, -149.75 220.5, -154.32 232.09"
                stroke="#1e1e1e"
                stroke-width="1"
                fill="none"
            ></path>
        </g>
    </g>
    <mask id="mask-CVrc5wLQHs3bX172iG-gf">
        <rect
            x="0"
            y="0"
            fill="#fff"
            width="558.867757443425"
            height="471.9866587974581"
        ></rect>
        <rect
            x="89.82741075329432"
            y="159.810418872119"
            fill="#000"
            width="162.83985900878906"
            height="50"
            opacity="1"
        ></rect>
    </mask>
    <g
        transform="translate(89.82741075329432 159.81041887211893) rotate(0 137.56668796224562 96.13223877734535)"
    >
        <text
            x="81.41992950439453"
            y="17.619999999999997"
            fill="#1e1e1e"
            text-anchor="middle"
            direction="ltr"
            dominant-baseline="alphabetic"
            class="arrow user-clicked-login-button-0"
        >
            user clicked login
        </text>
        <text
            x="81.41992950439453"
            y="42.62"
            fill="#1e1e1e"
            text-anchor="middle"
            direction="ltr"
            dominant-baseline="alphabetic"
            class="arrow user-clicked-login-button-0"
        >
            button
        </text>
    </g>
    <g mask="url(#mask-41Rm7YzU-sNw_DWX7DwIt)" stroke-linecap="round">
        <g
            transform="translate(677.91347468496 311.06237607543625) rotate(0 -80.49951153971642 -87.88589469366215)"
        >
            <path
                d="M0 0 C-3.34 -25.96, 6.77 -126.49, -20.07 -155.79 C-46.9 -185.08, -137.51 -172.44, -161 -175.77 M0 0 C-3.34 -25.96, 6.77 -126.49, -20.07 -155.79 C-46.9 -185.08, -137.51 -172.44, -161 -175.77"
                stroke="#1e1e1e"
                stroke-width="1"
                fill="none"
            ></path>
        </g>
        <g
            transform="translate(677.91347468496 311.06237607543625) rotate(0 -80.49951153971642 -87.88589469366215)"
        >
            <path
                d="M-137.45 -184.16 C-142.5 -182.36, -147.55 -180.56, -161 -175.77 M-137.45 -184.16 C-144.15 -181.77, -150.85 -179.39, -161 -175.77"
                stroke="#1e1e1e"
                stroke-width="1"
                fill="none"
            ></path>
        </g>
        <g
            transform="translate(677.91347468496 311.06237607543625) rotate(0 -80.49951153971642 -87.88589469366215)"
        >
            <path
                d="M-137.57 -167.06 C-142.59 -168.93, -147.62 -170.79, -161 -175.77 M-137.57 -167.06 C-144.23 -169.54, -150.9 -172.02, -161 -175.77"
                stroke="#1e1e1e"
                stroke-width="1"
                fill="none"
            ></path>
        </g>
    </g>
    <mask id="mask-41Rm7YzU-sNw_DWX7DwIt">
        <rect
            x="0"
            y="0"
            fill="#fff"
            width="938.9124977643928"
            height="586.8341654627606"
        ></rect>
        <rect
            x="632.2258637375553"
            y="142.77714283577592"
            fill="#000"
            width="51.239959716796875"
            height="25"
            opacity="1"
        ></rect>
    </mask>
    <g
        transform="translate(632.2258637375544 142.77714283577598) rotate(0 -34.811900592311304 80.39933854599818)"
    >
        <text
            x="25.619979858398438"
            y="17.619999999999997"
            fill="#1e1e1e"
            text-anchor="middle"
            direction="ltr"
            dominant-baseline="alphabetic"
            class="arrow reset-0"
        >
            reset
        </text>
    </g>
    <g
        stroke-linecap="round"
        transform="translate(418.39686849450163 604.7947847268663) rotate(0 136.27218319997064 57.5)"
    >
        <path
            d="M28.75 0 C81.28 0, 133.81 0, 243.79 0 C262.96 0, 272.54 9.58, 272.54 28.75 C272.54 41.32, 272.54 53.88, 272.54 86.25 C272.54 105.42, 262.96 115, 243.79 115 C197.98 115, 152.17 115, 28.75 115 C9.58 115, 0 105.42, 0 86.25 C0 73.87, 0 61.49, 0 28.75 C0 9.58, 9.58 0, 28.75 0"
            stroke="none"
            stroke-width="0"
            class="state-box auth-failed-0"
        ></path>
        <path
            d="M28.75 0 C110.84 0, 192.93 0, 243.79 0 M28.75 0 C110.36 0, 191.98 0, 243.79 0 M243.79 0 C262.96 0, 272.54 9.58, 272.54 28.75 M243.79 0 C262.96 0, 272.54 9.58, 272.54 28.75 M272.54 28.75 C272.54 50.62, 272.54 72.48, 272.54 86.25 M272.54 28.75 C272.54 47.66, 272.54 66.56, 272.54 86.25 M272.54 86.25 C272.54 105.42, 262.96 115, 243.79 115 M272.54 86.25 C272.54 105.42, 262.96 115, 243.79 115 M243.79 115 C184.34 115, 124.9 115, 28.75 115 M243.79 115 C200.22 115, 156.65 115, 28.75 115 M28.75 115 C9.58 115, 0 105.42, 0 86.25 M28.75 115 C9.58 115, 0 105.42, 0 86.25 M0 86.25 C0 70.6, 0 54.95, 0 28.75 M0 86.25 C0 68.62, 0 51, 0 28.75 M0 28.75 C0 9.58, 9.58 0, 28.75 0 M0 28.75 C0 9.58, 9.58 0, 28.75 0"
            stroke="#1e1e1e"
            stroke-width="1"
            fill="none"
        ></path>
    </g>
    <g
        transform="translate(478.6770930763082 644.7947847268663) rotate(0 75.99195861816406 17.5)"
    >
        <text
            x="75.99195861816406"
            y="24.668"
            font-family="Excalifont, Xiaolai, sans-serif, Segoe UI Emoji"
            font-size="28px"
            fill="#1e1e1e"
            text-anchor="middle"
            direction="ltr"
            dominant-baseline="alphabetic"
        >
            Auth failed
        </text>
    </g>
    <g mask="url(#mask-w1CRAUmJBAGQwUlGqFZ85)" stroke-linecap="round">
        <g
            transform="translate(282.72148313064827 456.9819205150169) rotate(0 138.263221118935 75.3246984568832)"
        >
            <path
                d="M0 0 C39.34 3.66, 189.98 -3.13, 236.07 21.97 C282.16 47.08, 269.78 129.2, 276.53 150.65 M0 0 C39.34 3.66, 189.98 -3.13, 236.07 21.97 C282.16 47.08, 269.78 129.2, 276.53 150.65"
                stroke="#1e1e1e"
                stroke-width="1"
                fill="none"
            ></path>
        </g>
        <g
            transform="translate(282.72148313064827 456.9819205150169) rotate(0 138.263221118935 75.3246984568832)"
        >
            <path
                d="M265.85 128.04 C269.47 135.7, 273.08 143.35, 276.53 150.65 M265.85 128.04 C269.83 136.47, 273.81 144.9, 276.53 150.65"
                stroke="#1e1e1e"
                stroke-width="1"
                fill="none"
            ></path>
        </g>
        <g
            transform="translate(282.72148313064827 456.9819205150169) rotate(0 138.263221118935 75.3246984568832)"
        >
            <path
                d="M282.88 126.47 C280.73 134.66, 278.58 142.84, 276.53 150.65 M282.88 126.47 C280.51 135.49, 278.14 144.5, 276.53 150.65"
                stroke="#1e1e1e"
                stroke-width="1"
                fill="none"
            ></path>
        </g>
    </g>
    <mask id="mask-w1CRAUmJBAGQwUlGqFZ85">
        <rect
            x="0"
            y="0"
            fill="#fff"
            width="659.2479253685183"
            height="707.6313174287833"
        ></rect>
        <rect
            x="503.370562047357"
            y="466.45651792996546"
            fill="#000"
            width="30.8399658203125"
            height="25"
            opacity="1"
        ></rect>
    </mask>
    <g
        transform="translate(503.37056204735745 466.45651792996546) rotate(0 -82.38585779777372 65.85010104193464)"
    >
        <text
            x="15.41998291015625"
            y="17.619999999999997"
            fill="#1e1e1e"
            text-anchor="middle"
            direction="ltr"
            dominant-baseline="alphabetic"
            class="arrow fail-0"
        >
            fail
        </text>
    </g>
    <g
        stroke-linecap="round"
        transform="translate(509.51075915606407 307.4195276518871) rotate(0 136.27218319997064 57.5)"
    >
        <path
            d="M28.75 0 C95.35 0, 161.95 0, 243.79 0 C262.96 0, 272.54 9.58, 272.54 28.75 C272.54 50.35, 272.54 71.94, 272.54 86.25 C272.54 105.42, 262.96 115, 243.79 115 C186.96 115, 130.13 115, 28.75 115 C9.58 115, 0 105.42, 0 86.25 C0 71.3, 0 56.36, 0 28.75 C0 9.58, 9.58 0, 28.75 0"
            stroke="none"
            stroke-width="0"
            class="state-box facebook-is-unavailable-0"
        ></path>
        <path
            d="M28.75 0 C96.02 0, 163.3 0, 243.79 0 M28.75 0 C102.51 0, 176.27 0, 243.79 0 M243.79 0 C262.96 0, 272.54 9.58, 272.54 28.75 M243.79 0 C262.96 0, 272.54 9.58, 272.54 28.75 M272.54 28.75 C272.54 51.53, 272.54 74.31, 272.54 86.25 M272.54 28.75 C272.54 40.42, 272.54 52.08, 272.54 86.25 M272.54 86.25 C272.54 105.42, 262.96 115, 243.79 115 M272.54 86.25 C272.54 105.42, 262.96 115, 243.79 115 M243.79 115 C165.42 115, 87.04 115, 28.75 115 M243.79 115 C191.78 115, 139.77 115, 28.75 115 M28.75 115 C9.58 115, 0 105.42, 0 86.25 M28.75 115 C9.58 115, 0 105.42, 0 86.25 M0 86.25 C0 70.28, 0 54.32, 0 28.75 M0 86.25 C0 65.48, 0 44.72, 0 28.75 M0 28.75 C0 9.58, 9.58 0, 28.75 0 M0 28.75 C0 9.58, 9.58 0, 28.75 0"
            stroke="#1e1e1e"
            stroke-width="1"
            fill="none"
        ></path>
    </g>
    <g
        transform="translate(565.940977634355 329.9195276518871) rotate(0 79.84196472167969 35)"
    >
        <text
            x="79.84196472167969"
            y="24.668"
            font-family="Excalifont, Xiaolai, sans-serif, Segoe UI Emoji"
            font-size="28px"
            fill="#1e1e1e"
            text-anchor="middle"
            direction="ltr"
            dominant-baseline="alphabetic"
        >
            Facebook is
        </text>
        <text
            x="79.84196472167969"
            y="59.668"
            font-family="Excalifont, Xiaolai, sans-serif, Segoe UI Emoji"
            font-size="28px"
            fill="#1e1e1e"
            text-anchor="middle"
            direction="ltr"
            dominant-baseline="alphabetic"
        >
            unavailable
        </text>
    </g>
    <g mask="url(#mask--FMT0ewvo9TWo6qXj5aqW)" stroke-linecap="round">
        <g
            transform="translate(691.3619560903257 658.3851852709254) rotate(0 -4.407332818690065 -323.8960872386495)"
        >
            <path
                d="M-0.73 0.59 C27.83 -12.57, 159.09 24.35, 170.71 -79.37 C182.33 -183.09, 127.17 -540.76, 69.01 -621.72 C10.84 -702.68, -136.94 -574.33, -178.28 -565.13 M1.09 -0.14 C29.59 -13.63, 158.24 22.21, 169.98 -81.17 C181.73 -184.54, 130.04 -539.37, 71.53 -620.41 C13.02 -701.44, -139.12 -576.35, -181.09 -567.38"
                stroke="#1e1e1e"
                stroke-width="1"
                fill="none"
            ></path>
        </g>
        <g
            transform="translate(691.3619560903257 658.3851852709254) rotate(0 -4.407332818690065 -323.8960872386495)"
        >
            <path
                d="M-163.83 -585.47 C-167.12 -580.45, -171.28 -577.91, -181.09 -567.38 M-163.83 -585.47 C-168.48 -580.65, -174.48 -574.63, -181.09 -567.38"
                stroke="#1e1e1e"
                stroke-width="1"
                fill="none"
            ></path>
        </g>
        <g
            transform="translate(691.3619560903257 658.3851852709254) rotate(0 -4.407332818690065 -323.8960872386495)"
        >
            <path
                d="M-156.24 -570.15 C-161.33 -568.92, -167.35 -570.13, -181.09 -567.38 M-156.24 -570.15 C-163.3 -569.88, -171.59 -568.45, -181.09 -567.38"
                stroke="#1e1e1e"
                stroke-width="1"
                fill="none"
            ></path>
        </g>
    </g>
    <mask id="mask--FMT0ewvo9TWo6qXj5aqW">
        <rect
            x="0"
            y="0"
            fill="#fff"
            width="1141.0763987521555"
            height="1380.099423029017"
        ></rect>
        <rect
            x="812.4916171189561"
            y="289.655878009238"
            fill="#000"
            width="51.239959716796875"
            height="25"
            opacity="1"
        ></rect>
    </mask>
    <g
        transform="translate(812.4916171189561 289.655878009238) rotate(0 -125.53699384731999 44.83322002303788)"
    >
        <text
            x="25.619979858398438"
            y="17.619999999999997"
            fill="#1e1e1e"
            text-anchor="middle"
            direction="ltr"
            dominant-baseline="alphabetic"
            class="arrow reset-1"
        >
            reset
        </text>
    </g>
</svg>
