<?xml version="1.0" encoding="iso-8859-1"?>
<svg fill="#000000" height="800px" width="800px" version="1.1"
	xmlns="http://www.w3.org/2000/svg" xmlns:xlink="http://www.w3.org/1999/xlink"
	viewBox="0 0 330 330" xml:space="preserve">
	<!-- <rect id="background" width="100%" height="100%" fill="green" /> -->
	<path d="M65,330h200c8.284,0,15-6.716,15-15V145c0-8.284-6.716-15-15-15h-15V85c0-46.869-38.131-85-85-85
	S80,38.131,80,85v45H65c-8.284,0-15,6.716-15,15v170C50,323.284,56.716,330,65,330z
			
	M110,85c0-30.327,24.673-55,55-55s55,24.673,55,55v45H110V85z"/>
</svg>